<svg width="61" height="61" viewBox="0 0 61 61" fill="none" xmlns="http://www.w3.org/2000/svg">
<path d="M52.5758 33.1122L27.4245 7.96097C27.2488 7.78514 27.0103 7.68633 26.7617 7.68628H4.26172C4.01308 7.68628 3.77462 7.78505 3.59881 7.96087C3.42299 8.13668 3.32422 8.37514 3.32422 8.62378V31.1238C3.32427 31.3724 3.42308 31.6108 3.59891 31.7866L28.7502 56.9378C29.63 57.8155 30.822 58.3084 32.0647 58.3084C33.3074 58.3084 34.4994 57.8155 35.3792 56.9378L52.5758 39.7413C53.4535 38.8615 53.9464 37.6695 53.9464 36.4268C53.9464 35.184 53.4535 33.992 52.5758 33.1122ZM17.3867 26.4363C16.4596 26.4363 15.5533 26.1614 14.7825 25.6463C14.0116 25.1312 13.4108 24.3991 13.056 23.5426C12.7012 22.6861 12.6084 21.7436 12.7893 20.8343C12.9702 19.925 13.4166 19.0898 14.0722 18.4342C14.7277 17.7787 15.5629 17.3322 16.4722 17.1513C17.3815 16.9705 18.324 17.0633 19.1805 17.4181C20.0371 17.7729 20.7692 18.3737 21.2842 19.1445C21.7993 19.9154 22.0742 20.8217 22.0742 21.7488C22.0742 22.3644 21.953 22.9739 21.7174 23.5426C21.4818 24.1113 21.1366 24.6281 20.7013 25.0633C20.266 25.4986 19.7493 25.8439 19.1805 26.0795C18.6118 26.315 18.0023 26.4363 17.3867 26.4363Z" fill="#3D91FD"/>
<path d="M26.7617 4.87378C27.2544 4.87239 27.7424 4.9688 28.1975 5.15741C28.6526 5.34601 29.0657 5.62308 29.413 5.97253L53.4327 29.9922L56.0511 27.3738L30.6252 1.94784C30.0978 1.42036 29.3826 1.12394 28.6367 1.12378H8.01172C7.76308 1.12378 7.52462 1.22255 7.34881 1.39837C7.17299 1.57418 7.07422 1.81264 7.07422 2.06128V4.87378H26.7617Z" fill="#8977FF"/>
</svg>
