<svg width="65" height="61" viewBox="0 0 65 61" fill="none" xmlns="http://www.w3.org/2000/svg">
<g clip-path="url(#clip0_2534_1351)">
<path d="M8.29862 44.4884C7.92034 44.2293 7.70541 43.7973 7.70541 43.3394V8.68714L2.09998 6.68282C1.67012 6.52732 1.19727 6.59643 0.827587 6.85561C0.457904 7.11479 0.234375 7.54676 0.234375 8.00464V48.4193C0.234375 49.0154 0.604058 49.5424 1.16288 49.7411L31.004 60.4366L8.30722 44.4971L8.29862 44.4884Z" fill="#8977FF"/>
<path d="M64.1991 6.85561C63.8294 6.59643 63.3566 6.52732 62.9267 6.68282L57.3213 8.68714V43.3394C57.3213 43.7973 57.0977 44.2293 56.7281 44.4884L34.0312 60.428L63.8724 49.7325C64.4312 49.5338 64.8009 49.0068 64.8009 48.4107V8.00464C64.8009 7.54676 64.5774 7.12343 64.2077 6.85561H64.1991Z" fill="#8977FF"/>
<path d="M43.8916 39.7541V0.427979L33.9102 17.4993V55.0716L43.8916 39.7541Z" fill="#3D91FD"/>
<path d="M31.1143 55.0716V17.4993L21.1328 0.427979V39.7541L31.1143 55.0716Z" fill="#3D91FD"/>
<path d="M46.685 8.76492V40.1688C46.685 40.4453 46.6076 40.7131 46.4528 40.9377L37.6406 54.4496L54.5171 42.6051V1.61157L46.6764 8.77356L46.685 8.76492Z" fill="#3D91FD"/>
<path d="M18.5642 40.9463C18.4181 40.7217 18.3321 40.4539 18.3321 40.1774V8.76492L10.5 1.61157V42.6137L27.3765 54.4582L18.5642 40.9463Z" fill="#3D91FD"/>
</g>
<defs>
<clipPath id="clip0_2534_1351">
<rect width="64.557" height="60" fill="white" transform="translate(0.234375 0.427979)"/>
</clipPath>
</defs>
</svg>
