<svg width="68" height="61" viewBox="0 0 68 61" fill="none" xmlns="http://www.w3.org/2000/svg">
<path d="M23.168 27.697L44.5038 40.1423L37.2075 44.3549L44.1011 56.2942L37.4679 60.1238L30.5743 48.1845L23.278 52.3971L23.168 27.697Z" fill="#8977FF"/>
<path fill-rule="evenodd" clip-rule="evenodd" d="M0.300781 9.31484C0.300781 4.23875 4.41576 0.123779 9.49184 0.123779H58.5108C63.5869 0.123779 67.7019 4.23875 67.7019 9.31484V46.0791C67.7019 51.1551 63.5869 55.2701 58.5108 55.2701H48.8169L46.1634 50.6746H58.5108C61.0489 50.6746 63.1064 48.6172 63.1064 46.0791V20.0377H19.1585L18.5372 19.6753L18.5388 20.0377H4.89631V46.0791C4.89631 48.6172 6.95381 50.6746 9.49184 50.6746H18.6752L18.6956 55.2701H9.49184C4.41576 55.2701 0.300781 51.1551 0.300781 46.0791V9.31484ZM7.19408 10.0808C7.19408 8.38869 8.56573 7.01707 10.2578 7.01707C11.9498 7.01707 13.3214 8.38869 13.3214 10.0808C13.3214 11.7728 11.9498 13.1444 10.2578 13.1444C8.56573 13.1444 7.19408 11.7728 7.19408 10.0808ZM19.4488 7.01707C17.7567 7.01707 16.3851 8.38869 16.3851 10.0808C16.3851 11.7728 17.7567 13.1444 19.4488 13.1444C21.1409 13.1444 22.5125 11.7728 22.5125 10.0808C22.5125 8.38869 21.1409 7.01707 19.4488 7.01707Z" fill="#3D91FD"/>
</svg>
