<svg width="68" height="61" viewBox="0 0 68 61" fill="none" xmlns="http://www.w3.org/2000/svg">
<path d="M63.4555 14.6099H56.9101V35.3371C56.9083 37.0726 56.2182 38.7364 54.991 39.9636C53.7639 41.1907 52.1001 41.8809 50.3646 41.8826H30.8679L22.1406 49.519H42.3792L57.3672 60.224C57.5516 60.3572 57.7735 60.4286 58.001 60.428C58.1746 60.4276 58.3457 60.3865 58.5006 60.308C58.6789 60.2162 58.8284 60.077 58.9327 59.9057C59.037 59.7344 59.0921 59.5377 59.0919 59.3371V49.519H63.4555C64.6128 49.519 65.7227 49.0592 66.5411 48.2409C67.3594 47.4225 67.8192 46.3126 67.8192 45.1553V18.9735C67.8192 17.8162 67.3594 16.7063 66.5411 15.8879C65.7227 15.0696 64.6128 14.6099 63.4555 14.6099Z" fill="#8977FF"/>
<path d="M50.3654 0.427979H4.54723C3.38992 0.427979 2.28001 0.887717 1.46167 1.70606C0.643333 2.5244 0.183594 3.63431 0.183594 4.79161V35.3371C0.183594 36.4944 0.643333 37.6043 1.46167 38.4226C2.28001 39.241 3.38992 39.7007 4.54723 39.7007H11.0927V53.8825C11.0928 54.092 11.1533 54.297 11.2669 54.4731C11.3804 54.6491 11.5423 54.7887 11.733 54.8752C11.8743 54.9403 12.0281 54.9738 12.1836 54.9734C12.4476 54.9734 12.7026 54.8777 12.9014 54.704L30.0483 39.7007H50.3654C51.5227 39.7007 52.6326 39.241 53.451 38.4226C54.2693 37.6043 54.729 36.4944 54.729 35.3371V4.79161C54.729 3.63431 54.2693 2.5244 53.451 1.70606C52.6326 0.887717 51.5227 0.427979 50.3654 0.427979Z" fill="#3D91FD"/>
</svg>
