<svg width="74" height="73" viewBox="0 0 74 73" fill="none" xmlns="http://www.w3.org/2000/svg">
<path d="M73.2422 36.623C73.2422 56.6391 57.016 72.8652 37 72.8652C16.984 72.8652 0.757812 56.6391 0.757812 36.623C0.757812 16.607 16.984 0.380859 37 0.380859C57.016 0.380859 73.2422 16.607 73.2422 36.623Z" fill="#30D0DB"/>
<path d="M73.2422 36.623C73.2422 56.6391 57.016 72.8652 37 72.8652C16.984 72.8652 0.757812 56.6391 0.757812 36.623C0.757812 16.607 16.984 0.380859 37 0.380859C57.016 0.380859 73.2422 16.607 73.2422 36.623Z" fill="url(#paint0_linear_2591_2187)"/>
<path d="M67.2422 36.623C67.2422 19.9207 53.7023 6.38086 37 6.38086C20.2977 6.38086 6.75781 19.9207 6.75781 36.623C6.75781 53.3253 20.2977 66.8652 37 66.8652V72.8652C16.984 72.8652 0.757812 56.6391 0.757812 36.623C0.757812 16.607 16.984 0.380859 37 0.380859C57.016 0.380859 73.2422 16.607 73.2422 36.623C73.2422 56.6391 57.016 72.8652 37 72.8652V66.8652C53.7023 66.8652 67.2422 53.3253 67.2422 36.623Z" fill="white"/>
<path d="M29.425 30.603C29.525 28.603 30.225 27.063 31.525 25.983C32.845 24.883 34.575 24.333 36.715 24.333C38.175 24.333 39.425 24.593 40.465 25.113C41.505 25.613 42.285 26.303 42.805 27.183C43.345 28.043 43.615 29.023 43.615 30.123C43.615 31.383 43.285 32.453 42.625 33.333C41.985 34.193 41.215 34.773 40.315 35.073V35.193C41.475 35.553 42.375 36.193 43.015 37.113C43.675 38.033 44.005 39.213 44.005 40.653C44.005 41.853 43.725 42.923 43.165 43.863C42.625 44.803 41.815 45.543 40.735 46.083C39.675 46.603 38.395 46.863 36.895 46.863C34.635 46.863 32.795 46.293 31.375 45.153C29.955 44.013 29.205 42.333 29.125 40.113H33.205C33.245 41.093 33.575 41.883 34.195 42.483C34.835 43.063 35.705 43.353 36.805 43.353C37.825 43.353 38.605 43.073 39.145 42.513C39.705 41.933 39.985 41.193 39.985 40.293C39.985 39.093 39.605 38.233 38.845 37.713C38.085 37.193 36.905 36.933 35.305 36.933H34.435V33.483H35.305C38.145 33.483 39.565 32.533 39.565 30.633C39.565 29.773 39.305 29.103 38.785 28.623C38.285 28.143 37.555 27.903 36.595 27.903C35.655 27.903 34.925 28.163 34.405 28.683C33.905 29.183 33.615 29.823 33.535 30.603H29.425Z" fill="white"/>
<defs>
<linearGradient id="paint0_linear_2591_2187" x1="32.7712" y1="0.380888" x2="32.7712" y2="72.8652" gradientUnits="userSpaceOnUse">
<stop stop-color="#30D0DB"/>
<stop offset="1" stop-color="#3AB7EB"/>
</linearGradient>
</defs>
</svg>
