<svg width="60" height="61" viewBox="0 0 60 61" fill="none" xmlns="http://www.w3.org/2000/svg">
<path d="M11.25 18.2405C14.8744 18.2405 17.8125 15.3023 17.8125 11.678C17.8125 8.05361 14.8744 5.11548 11.25 5.11548C7.62563 5.11548 4.6875 8.05361 4.6875 11.678C4.6875 15.3023 7.62563 18.2405 11.25 18.2405Z" fill="#8977FF"/>
<path d="M15.9375 42.6155V30.428C15.9375 27.6408 17.0531 25.1124 18.8569 23.2552C17.7722 22.4639 16.4419 21.9905 15 21.9905H7.5C3.88125 21.9905 0.9375 24.9342 0.9375 28.553V36.053C0.9375 36.4083 1.13812 36.7327 1.45594 36.892L4.72781 38.528L5.62687 51.1205C5.6625 51.6108 6.07125 51.9905 6.5625 51.9905H15.9375C16.4287 51.9905 16.8375 51.6108 16.8731 51.1195L17.3081 45.0277C16.4794 44.5299 15.9375 43.6242 15.9375 42.6155Z" fill="#8977FF"/>
<path d="M48.75 18.2405C52.3744 18.2405 55.3125 15.3023 55.3125 11.678C55.3125 8.05361 52.3744 5.11548 48.75 5.11548C45.1256 5.11548 42.1875 8.05361 42.1875 11.678C42.1875 15.3023 45.1256 18.2405 48.75 18.2405Z" fill="#8977FF"/>
<path d="M44.0639 42.6155V30.428C44.0639 27.6408 42.9483 25.1124 41.1445 23.2552C42.2292 22.4639 43.5595 21.9905 45.0014 21.9905H52.5014C56.1202 21.9905 59.0639 24.9342 59.0639 28.553V36.053C59.0639 36.4083 58.8633 36.7327 58.5455 36.892L55.2736 38.528L54.3745 51.1205C54.3389 51.6108 53.9302 51.9905 53.4389 51.9905H44.0639C43.5727 51.9905 43.1639 51.6108 43.1283 51.1195L42.6933 45.0277C43.522 44.5299 44.0639 43.6242 44.0639 42.6155Z" fill="#8977FF"/>
<path d="M33.75 21.9905H26.25C21.5981 21.9905 17.8125 25.7761 17.8125 30.428V42.6155C17.8125 43.0627 18.1275 43.447 18.5663 43.5342L22.5469 44.3302L23.4394 58.6111C23.4703 59.1052 23.88 59.4905 24.375 59.4905H35.625C36.12 59.4905 36.5297 59.1052 36.5606 58.6111L37.4531 44.3311L41.4338 43.5352C41.8725 43.447 42.1875 43.0627 42.1875 42.6155V30.428C42.1875 25.7761 38.4019 21.9905 33.75 21.9905Z" fill="#3D91FD"/>
<path d="M30 18.2405C34.6519 18.2405 38.4375 14.4549 38.4375 9.80298C38.4375 5.1511 34.6519 1.36548 30 1.36548C25.3481 1.36548 21.5625 5.1511 21.5625 9.80298C21.5625 14.4549 25.3481 18.2405 30 18.2405Z" fill="#3D91FD"/>
</svg>
