<svg width="74" height="73" viewBox="0 0 74 73" fill="none" xmlns="http://www.w3.org/2000/svg">
<path d="M73.25 36.623C73.25 56.6391 57.0238 72.8652 37.0078 72.8652C16.9918 72.8652 0.765625 56.6391 0.765625 36.623C0.765625 16.607 16.9918 0.380859 37.0078 0.380859C57.0238 0.380859 73.25 16.607 73.25 36.623Z" fill="#30D0DB"/>
<path d="M73.25 36.623C73.25 56.6391 57.0238 72.8652 37.0078 72.8652C16.9918 72.8652 0.765625 56.6391 0.765625 36.623C0.765625 16.607 16.9918 0.380859 37.0078 0.380859C57.0238 0.380859 73.25 16.607 73.25 36.623Z" fill="url(#paint0_linear_2591_2184)"/>
<path d="M67.25 36.623C67.25 19.9207 53.7101 6.38086 37.0078 6.38086C20.3055 6.38086 6.76562 19.9207 6.76562 36.623C6.76562 53.3253 20.3055 66.8652 37.0078 66.8652V72.8652C16.9918 72.8652 0.765625 56.6391 0.765625 36.623C0.765625 16.607 16.9918 0.380859 37.0078 0.380859C57.0238 0.380859 73.25 16.607 73.25 36.623C73.25 56.6391 57.0238 72.8652 37.0078 72.8652V66.8652C53.7101 66.8652 67.25 53.3253 67.25 36.623Z" fill="white"/>
<path d="M31.0587 41.9728C32.9787 40.3728 34.5087 39.0428 35.6487 37.9828C36.7888 36.9028 37.7388 35.7828 38.4988 34.6228C39.2588 33.4628 39.6388 32.3228 39.6388 31.2028C39.6388 30.1828 39.3988 29.3828 38.9188 28.8028C38.4388 28.2228 37.6988 27.9328 36.6988 27.9328C35.6988 27.9328 34.9288 28.2728 34.3888 28.9528C33.8488 29.6128 33.5687 30.5228 33.5487 31.6828H29.4688C29.5487 29.2828 30.2587 27.4628 31.5987 26.2228C32.9588 24.9828 34.6788 24.3628 36.7587 24.3628C39.0388 24.3628 40.7888 24.9728 42.0087 26.1928C43.2287 27.3928 43.8387 28.9828 43.8387 30.9628C43.8387 32.5228 43.4187 34.0128 42.5788 35.4328C41.7388 36.8528 40.7788 38.0928 39.6988 39.1528C38.6188 40.1928 37.2088 41.4528 35.4688 42.9328H44.3188V46.4128H29.4987V43.2928L31.0587 41.9728Z" fill="white"/>
<defs>
<linearGradient id="paint0_linear_2591_2184" x1="32.779" y1="0.380888" x2="32.779" y2="72.8652" gradientUnits="userSpaceOnUse">
<stop stop-color="#30D0DB"/>
<stop offset="1" stop-color="#3AB7EB"/>
</linearGradient>
</defs>
</svg>
