<svg width="90" height="80" viewBox="0 0 90 80" fill="none" xmlns="http://www.w3.org/2000/svg">
<path d="M11.4337 34.2921C11.4337 31.971 13.3021 30.0845 15.6233 30.0845C17.9445 30.0845 19.8099 31.971 19.8099 34.2921C19.8099 36.6163 17.9445 38.4817 15.6233 38.4817C13.3021 38.4817 11.4337 36.6163 11.4337 34.2921ZM14.5608 47.0539C16.5771 44.8837 19.5955 43.625 22.783 43.625C25.9946 43.625 28.9888 44.8837 31.0082 47.0539C31.9197 48.0289 31.8745 49.5471 30.8995 50.4375C29.9246 51.3491 28.4033 51.2827 27.5159 50.3289C26.4081 49.1366 24.6272 48.4212 22.783 48.4212C20.9387 48.4212 19.182 49.1366 18.0743 50.3289C17.5974 50.8269 16.9454 51.0895 16.3175 51.0895C15.732 51.0895 15.1464 50.8722 14.6665 50.4375C13.7127 49.5471 13.6493 48.0289 14.5608 47.0539ZM29.9457 38.4817C27.6456 38.4817 25.7561 36.6163 25.7561 34.2921C25.7561 31.971 27.6456 30.0845 29.9457 30.0845C32.2668 30.0845 34.1564 31.971 34.1564 34.2921C34.1564 36.6163 32.2668 38.4817 29.9457 38.4817ZM0 40.3048C0 52.8674 10.1992 63.0876 22.783 63.0876C31.1591 63.0876 38.4727 58.554 42.4208 51.826C40.7939 48.3337 39.8612 44.4279 39.8612 40.3048C39.8612 36.1817 40.7939 32.2547 42.4208 28.7594C38.4727 22.0344 31.1591 17.4978 22.783 17.4978C10.1992 17.4978 0 27.7181 0 40.3048Z" fill="#3D91FD"/>
<path d="M55.6292 34.2894C55.6292 31.9742 57.5097 30.0938 59.8278 30.0938C62.146 30.0938 64.0234 31.9742 64.0234 34.2894C64.0234 36.6075 62.146 38.488 59.8278 38.488C57.5097 38.488 55.6292 36.6075 55.6292 34.2894ZM58.88 45.4544C59.852 44.5519 61.3702 44.6063 62.2697 45.5752C63.3775 46.7644 65.1433 47.4737 66.9905 47.4737C68.8408 47.4737 70.6066 46.7644 71.7114 45.5752C72.1852 45.0681 72.8251 44.8115 73.468 44.8115C74.0536 44.8115 74.6392 45.0258 75.101 45.4544C76.0729 46.3599 76.1242 47.8782 75.2217 48.8471C73.1934 51.0234 70.1931 52.27 66.9905 52.27C63.788 52.27 60.7907 51.0234 58.7624 48.8471C57.8598 47.8782 57.9111 46.3599 58.88 45.4544ZM74.1563 38.488C71.8381 38.488 69.9576 36.6075 69.9576 34.2894C69.9576 31.9742 71.8381 30.0938 74.1563 30.0938C76.4744 30.0938 78.3549 31.9742 78.3549 34.2894C78.3549 36.6075 76.4744 38.488 74.1563 38.488ZM44.2075 40.293C44.2075 52.8767 54.4068 63.0789 66.9905 63.0789C79.5743 63.0789 89.7766 52.8767 89.7766 40.293C89.7766 27.7093 79.5743 17.5101 66.9905 17.5101C54.4068 17.5101 44.2075 27.7093 44.2075 40.293Z" fill="#3D91FD"/>
<path d="M62.7166 0.265588C61.7809 0.244459 60.9991 0.999052 60.978 1.93476L60.8512 7.33164L60.2355 6.69174C51.9469 -1.97106 38.1588 -2.2578 29.499 6.03373C27.9414 7.5218 26.6375 9.2091 25.6022 11.0413C24.9472 12.2003 25.8859 13.628 27.217 13.5526C27.8056 13.5193 28.3157 13.1753 28.6055 12.6652C29.4688 11.1378 30.5524 9.73126 31.8443 8.50278C39.1579 1.50311 50.7909 1.76271 57.7694 9.05817L58.3852 9.69504L52.9913 9.5713C52.0525 9.54715 51.2738 10.3048 51.2497 11.2405C51.2406 11.7083 51.4157 12.149 51.7145 12.469C52.0284 12.7678 52.454 12.97 52.9219 12.9791L62.4299 13.1903C63.3747 13.2115 64.1564 12.4629 64.1745 11.5212L64.3858 2.00417C64.4099 1.06847 63.6523 0.286716 62.7166 0.265588Z" fill="#8977FF"/>
<path d="M27.057 79.7341C27.9957 79.7553 28.7744 79.0007 28.7986 78.065L28.9223 72.6711L29.5381 73.3079C37.8297 81.9707 51.6148 82.2575 60.2776 73.9659C61.8351 72.4779 63.1391 70.7906 64.1744 68.9584C64.8294 67.7994 63.8877 66.3747 62.5565 66.4471C61.971 66.4803 61.4578 66.8244 61.1681 67.3345C60.3078 68.8619 59.2242 70.2684 57.9293 71.4999C50.6187 78.4966 38.9857 78.237 32.0072 70.9415L31.3884 70.3046L36.7853 70.4314C37.721 70.4525 38.5028 69.6979 38.5239 68.7592C38.536 68.2914 38.3609 67.8537 38.0621 67.5338C37.7452 67.2319 37.3226 67.0327 36.8547 67.0206L27.3437 66.8123C26.402 66.7882 25.6202 67.5368 25.5991 68.4815L25.3878 77.9955C25.3666 78.9312 26.1213 79.713 27.057 79.7341Z" fill="#8977FF"/>
</svg>
