<svg width="91" height="91" viewBox="0 0 91 91" fill="none" xmlns="http://www.w3.org/2000/svg">
<path d="M34.8275 8.811C34.7694 8.25038 34.4637 7.746 33.9931 7.43475C29.3956 4.401 23.8906 3.34163 18.4925 4.45163C13.0963 5.55975 8.45375 8.70413 5.42188 13.3035C0.875 20.1997 0.875 29.1116 5.42188 36.006C5.73312 36.4766 6.2375 36.7822 6.79813 36.8404C6.86188 36.846 6.92375 36.8498 6.9875 36.8498C7.4825 36.8498 7.96062 36.6547 8.31312 36.3004L34.2875 10.326C34.685 9.9285 34.8838 9.37163 34.8275 8.811Z" fill="#8977FF"/>
<path d="M84.8393 13.3035C81.8075 8.70417 77.1649 5.56167 71.7687 4.45167C66.3687 3.34542 60.8674 4.40479 56.2681 7.43479C55.7974 7.74604 55.4918 8.25042 55.4337 8.81104C55.3774 9.37167 55.5762 9.92854 55.9737 10.326L81.9481 36.3004C82.3006 36.6529 82.7787 36.8498 83.2737 36.8498C83.3374 36.8498 83.3993 36.8479 83.4631 36.8404C84.0237 36.7823 84.5281 36.4767 84.8393 36.006C89.3862 29.1117 89.3862 20.1998 84.8393 13.3035Z" fill="#8977FF"/>
<path d="M45.1308 17.1436C26.5215 17.1436 11.3808 32.2842 11.3808 50.8936C11.3808 59.5242 14.6658 67.3842 20.0152 73.3579L11.9302 81.4429C11.1971 82.1761 11.1971 83.3611 11.9302 84.0942C12.2958 84.4598 12.7758 84.6436 13.2558 84.6436C13.7358 84.6436 14.2158 84.4598 14.5815 84.0942L22.6665 76.0092C28.6402 81.3586 36.5002 84.6436 45.1308 84.6436C53.7615 84.6436 61.6215 81.3586 67.5952 76.0092L75.6802 84.0942C76.0458 84.4598 76.5258 84.6436 77.0058 84.6436C77.4858 84.6436 77.9658 84.4598 78.3315 84.0942C79.0646 83.3611 79.0646 82.1761 78.3315 81.4429L70.2465 73.3579C75.5958 67.3842 78.8808 59.5242 78.8808 50.8936C78.8808 32.2842 63.7402 17.1436 45.1308 17.1436ZM63.8808 52.7686H45.1308C44.0958 52.7686 43.2558 51.9286 43.2558 50.8936V32.1436C43.2558 31.1086 44.0958 30.2686 45.1308 30.2686C46.1658 30.2686 47.0058 31.1086 47.0058 32.1436V49.0186H63.8808C64.9158 49.0186 65.7558 49.8586 65.7558 50.8936C65.7558 51.9286 64.9158 52.7686 63.8808 52.7686Z" fill="#3D91FD"/>
</svg>
