<svg width="80" height="91" viewBox="0 0 80 91" fill="none" xmlns="http://www.w3.org/2000/svg">
<g clip-path="url(#clip0_1601_461)">
<path d="M79.0476 46.4299L78.9826 76.4462C78.9826 79.7777 76.2361 83.1255 71.8157 82.8005V90.0811H42.5308L42.5633 52.5567C52.5091 52.5567 66.6153 52.0854 72.5633 50.0215C75.4723 48.9976 77.78 47.7788 79.0476 46.4462V46.4299Z" fill="#8977FF"/>
<path d="M22.8018 0.0810547C15.2449 0.0810547 9.11816 6.20782 9.11816 13.7647C9.11816 21.3216 15.2449 27.4483 22.8018 27.4483C30.3587 27.4483 36.4854 21.3216 36.4854 13.7647C36.4854 6.20782 30.3587 0.0810547 22.8018 0.0810547Z" fill="#3D91FD"/>
<path d="M38.0944 48.0226C45.9275 48.0226 65.4616 47.7788 71.0684 45.7799C75.44 44.236 77.7639 42.5784 77.7639 38.8731C77.7639 35.4278 75.7488 32.275 71.7834 32.47C66.5017 32.7463 60.0662 33.2826 54.4432 33.2826C47.5364 33.2826 40.5483 32.7463 33.8365 32.4375C29.3024 32.2263 20.9817 32.0475 15.7163 32.1612C4.51907 32.405 0.89502 37.6867 0.89502 48.3476L0.960025 75.6824C0.960025 78.9814 3.38148 82.4429 8.38689 82.2642V90.0323H38.0456L38.0781 47.9738L38.0944 48.0226Z" fill="#3D91FD"/>
<path d="M60.9883 29.4921C68.0814 27.818 72.4744 20.7107 70.8002 13.6176C69.1261 6.52447 62.0189 2.13151 54.9257 3.80564C47.8326 5.47977 43.4397 12.587 45.1138 19.6801C46.7879 26.7733 53.8952 31.1662 60.9883 29.4921Z" fill="#8977FF"/>
</g>
<defs>
<clipPath id="clip0_1601_461">
<rect width="78.1365" height="90" fill="white" transform="translate(0.911133 0.0810547)"/>
</clipPath>
</defs>
</svg>
