<svg width="91" height="91" viewBox="0 0 91 91" fill="none" xmlns="http://www.w3.org/2000/svg">
<g clip-path="url(#clip0_1601_477)">
<path d="M85.5629 42.8275H73.5075C72.7924 47.2968 68.9138 50.7246 64.2502 50.7246H40.0616C39.8595 50.7246 39.6652 50.7945 39.502 50.9189V72.2782C39.502 74.8277 41.5617 76.8797 44.1112 76.8797H61.452C62.1982 76.8797 62.9055 77.1828 63.4341 77.7114L75.5051 89.8678C75.7693 90.1399 76.1269 90.2876 76.4922 90.2876C76.671 90.2876 76.8497 90.2487 77.0207 90.1788C77.5415 89.9611 77.8835 89.4559 77.8835 88.8885V76.8797H85.5629C88.1046 76.8797 90.1644 74.8199 90.1644 72.2782V47.4367C90.1644 44.8873 88.1046 42.8353 85.5629 42.8353V42.8275ZM50.5392 63.5417C48.5027 63.5417 46.8471 61.8939 46.8471 59.8497C46.8471 57.8055 48.495 56.1577 50.5392 56.1577C52.5834 56.1577 54.2312 57.8055 54.2312 59.8497C54.2312 61.8939 52.5834 63.5417 50.5392 63.5417ZM62.9288 63.5417C60.8924 63.5417 59.2368 61.8939 59.2368 59.8497C59.2368 57.8055 60.8846 56.1577 62.9288 56.1577C64.9731 56.1577 66.6209 57.8055 66.6209 59.8497C66.6209 61.8939 64.9731 63.5417 62.9288 63.5417ZM75.3107 63.5417C73.2743 63.5417 71.6187 61.8939 71.6187 59.8497C71.6187 57.8055 73.2665 56.1577 75.3107 56.1577C77.355 56.1577 79.0028 57.8055 79.0028 59.8497C79.0028 61.8939 77.355 63.5417 75.3107 63.5417Z" fill="#8977FF"/>
<path d="M40.0537 47.7787H64.2423C67.2814 47.7787 69.8308 45.6645 70.4915 42.8275C70.6003 42.3534 70.6625 41.8637 70.6625 41.3507V6.70003C70.6625 3.15568 67.7866 0.279785 64.2423 0.279785H6.42122C2.87687 0.279785 0.000976562 3.15568 0.000976562 6.70003V41.3507C0.000976562 44.895 2.87687 47.7709 6.42122 47.7709H17.132V64.5211C17.132 65.3139 17.6061 66.0212 18.3368 66.3166C18.5699 66.4176 18.8264 66.4643 19.0829 66.4643C19.5882 66.4643 20.0934 66.2622 20.4587 65.8891L37.2866 48.9291C37.8851 48.3306 38.6623 47.9419 39.494 47.8176C39.6728 47.7787 39.8671 47.7709 40.0537 47.7709V47.7787ZM55.2648 18.8876C58.1096 18.8876 60.4103 21.1883 60.4103 24.0331C60.4103 26.8779 58.1096 29.1787 55.2648 29.1787C52.42 29.1787 50.1193 26.8779 50.1193 24.0331C50.1193 21.1883 52.42 18.8876 55.2648 18.8876ZM20.7152 29.1709C17.8782 29.1709 15.5697 26.8702 15.5697 24.0254C15.5697 21.1806 17.8704 18.8798 20.7152 18.8798C23.56 18.8798 25.8607 21.1806 25.8607 24.0254C25.8607 26.8702 23.56 29.1709 20.7152 29.1709ZM37.9939 29.1709C35.1491 29.1709 32.8484 26.8702 32.8484 24.0254C32.8484 21.1806 35.1491 18.8798 37.9939 18.8798C40.8387 18.8798 43.1394 21.1806 43.1394 24.0254C43.1394 26.8702 40.8387 29.1709 37.9939 29.1709Z" fill="#3D91FD"/>
</g>
<defs>
<clipPath id="clip0_1601_477">
<rect width="90.1632" height="90" fill="white" transform="translate(0.000976562 0.279785)"/>
</clipPath>
</defs>
</svg>
