<svg width="91" height="91" viewBox="0 0 91 91" fill="none" xmlns="http://www.w3.org/2000/svg">
<g clip-path="url(#clip0_1601_498)">
<path d="M38.1525 21.1469L25.4783 8.4727C23.4698 6.46418 20.2152 6.46418 18.209 8.4727C16.2005 10.4812 16.2005 13.7358 18.209 15.742L45.2241 42.7571L72.2393 15.742C74.2455 13.7335 74.2455 10.4789 72.2393 8.4727C70.2307 6.46418 66.9762 6.46418 64.97 8.4727L52.2958 21.1469C48.3904 25.0523 42.0602 25.0523 38.1548 21.1469H38.1525Z" fill="#8977FF"/>
<path d="M45.2219 18.3107C50.1713 18.3107 54.1835 14.2985 54.1835 9.34909C54.1835 4.39971 50.1713 0.387451 45.2219 0.387451C40.2725 0.387451 36.2603 4.39971 36.2603 9.34909C36.2603 14.2985 40.2725 18.3107 45.2219 18.3107Z" fill="#8977FF"/>
<path d="M38.1525 69.6281L25.4783 82.3022C23.4698 84.3107 20.2152 84.3107 18.209 82.3022C16.2005 80.2937 16.2005 77.0391 18.209 75.0329L45.2241 48.0178L72.2393 75.0329C74.2455 77.0415 74.2455 80.296 72.2393 82.3022C70.2307 84.3107 66.9762 84.3107 64.97 82.3022L52.2958 69.6281C48.3904 65.7226 42.0602 65.7226 38.1548 69.6281H38.1525Z" fill="#8977FF"/>
<path d="M46.661 90.2696C51.5464 89.4766 54.864 84.8733 54.071 79.9879C53.278 75.1025 48.6747 71.7849 43.7892 72.5779C38.9038 73.3709 35.5862 77.9742 36.3792 82.8597C37.1723 87.7451 41.7756 91.0627 46.661 90.2696Z" fill="#8977FF"/>
<path d="M20.9823 52.4579L8.30815 65.1321C6.29963 67.1383 6.29963 70.3952 8.30815 72.4014C10.3167 74.4099 13.5712 74.4099 15.5774 72.4014L42.5925 45.3863L15.5774 18.3711C13.5689 16.3626 10.3144 16.3626 8.30815 18.3711C6.29963 20.3797 6.29963 23.6342 8.30815 25.6404L20.9823 38.3146C24.8878 42.22 24.8878 48.5501 20.9823 52.4556V52.4579Z" fill="#3D91FD"/>
<path d="M9.18479 36.4247C14.134 36.4247 18.1464 40.4371 18.1464 45.3863C18.1464 50.3356 14.134 54.348 9.18479 54.348C4.23554 54.348 0.223145 50.3379 0.223145 45.3886C0.223145 40.4394 4.23554 36.427 9.18479 36.427V36.4247Z" fill="#3D91FD"/>
<path d="M69.4637 52.4579L82.1379 65.1321C84.1464 67.1383 84.1464 70.3952 82.1379 72.4014C80.1317 74.4099 76.8748 74.4099 74.8686 72.4014L47.8535 45.3863L74.8686 18.3711C76.8772 16.3626 80.1317 16.3626 82.1379 18.3711C84.1464 20.3797 84.1464 23.6342 82.1379 25.6404L69.4637 38.3146C65.5583 42.22 65.5583 48.5501 69.4637 52.4556V52.4579Z" fill="#3D91FD"/>
<path d="M81.2615 36.4247C76.3122 36.4247 72.2998 40.4371 72.2998 45.3863C72.2998 50.3356 76.3122 54.348 81.2615 54.348C86.2107 54.348 90.2231 50.3356 90.2231 45.3863C90.2231 40.4371 86.2107 36.4247 81.2615 36.4247Z" fill="#3D91FD"/>
</g>
<defs>
<clipPath id="clip0_1601_498">
<rect width="90" height="90" fill="white" transform="translate(0.223145 0.387451)"/>
</clipPath>
</defs>
</svg>
