<svg width="81" height="92" viewBox="0 0 81 92" fill="none" xmlns="http://www.w3.org/2000/svg">
<g clip-path="url(#clip0_1601_508)">
<path d="M66.2013 40.7447L74.0294 27.3873C74.6808 26.5618 75.6641 26.0813 76.7037 26.0813H76.79C78.6853 26.0813 80.2212 27.647 80.2212 29.5779L74.5644 61.1595C73.8071 65.3884 71.8844 69.3096 69.0209 72.4664L65.0402 76.8544C63.4996 78.0851 62.5995 79.9695 62.5995 81.9652L63.862 87.5854C64.2642 89.3751 62.9299 91.0815 61.1282 91.0815H49.3965C48.1134 91.0815 47.0453 90.0774 46.9424 88.774L45.1268 65.8314C44.8688 62.5745 45.9529 59.3551 48.119 56.9459L57.8847 46.0815C59.5577 44.2207 62.4258 44.1886 64.1381 46.0114L64.2161 46.0941C65.6833 47.6562 65.8053 50.0786 64.502 51.7855L56.1425 62.7336C55.6431 63.388 55.6995 64.3189 56.2749 64.9053L56.3054 64.9363C57.0198 65.6644 58.1897 65.588 58.7998 64.7767C60.6955 62.2548 64.5739 57.125 67.5377 53.2064C69.7364 50.3004 69.3502 46.1563 66.6552 43.7229C65.8219 42.97 65.6316 41.7193 66.2029 40.7452L66.2013 40.7447Z" fill="#8977FF"/>
<path d="M14.242 40.7447L6.41399 27.3873C5.7626 26.5618 4.77931 26.0813 3.73967 26.0813H3.65334C1.7581 26.0813 0.222168 27.647 0.222168 29.5779L5.87892 61.1595C6.63629 65.3884 8.55893 69.3096 11.4225 72.4664L15.4032 76.8544C16.9438 78.0851 17.8438 79.9695 17.8438 81.9652L16.5814 87.5854C16.1792 89.3751 17.5135 91.0815 19.3151 91.0815H31.0469C32.33 91.0815 33.3981 90.0774 33.501 88.774L35.3166 65.8314C35.5746 62.5745 34.4905 59.3551 32.3243 56.9459L22.5586 46.0815C20.8857 44.2207 18.0175 44.1886 16.3053 46.0114L16.2272 46.0941C14.7601 47.6562 14.6381 50.0786 15.9413 51.7855L24.3009 62.7336C24.8003 63.388 24.7439 64.3189 24.1685 64.9053L24.138 64.9363C23.4235 65.6644 22.2536 65.588 21.6436 64.7767C19.7478 62.2548 15.8695 57.125 12.9057 53.2064C10.707 50.3004 11.0931 46.1563 13.7881 43.7229C14.6215 42.97 14.8118 41.7193 14.2405 40.7452L14.242 40.7447Z" fill="#8977FF"/>
<path d="M57.865 36.7898C56.1243 38.6606 54.2968 40.4397 52.4083 42.1561C49.7624 44.5601 46.9237 46.7196 44.1537 48.966C42.9027 49.9807 41.6417 50.9838 40.3896 51.9979C40.2697 52.0949 40.2051 52.1186 40.0676 52.0079C36.945 49.4886 33.7951 47.0041 30.6958 44.4552C27.6989 41.9907 24.8912 39.3107 22.2629 36.4395C19.6971 33.6367 17.3444 30.668 15.4574 27.3384C13.8848 24.5636 12.7164 21.6307 12.186 18.4586C11.6845 15.4604 11.7295 12.4917 12.84 9.62047C14.4028 5.57966 17.1733 2.73476 21.1266 1.10789C23.1154 0.288667 25.1983 -0.0237457 27.3329 0.122187C30.4187 0.332921 33.1799 1.42821 35.5823 3.42438C37.7562 5.23037 39.2869 7.49364 40.1766 10.2058C40.1813 10.2205 40.2056 10.2284 40.2304 10.2474C40.4269 9.75798 40.599 9.26064 40.8198 8.78755C42.9611 4.20568 46.4605 1.3318 51.3516 0.371906C55.7686 -0.494735 59.7778 0.58422 63.2684 3.47917C66.0508 5.7867 67.7165 8.78913 68.3487 12.389C68.6336 14.0106 68.6093 15.6348 68.4258 17.2627C67.9103 21.8262 66.0751 25.8554 63.5936 29.6191C61.9 32.1874 59.9515 34.5471 57.8645 36.7898H57.865Z" fill="#3D91FD"/>
</g>
<defs>
<clipPath id="clip0_1601_508">
<rect width="80" height="91" fill="white" transform="translate(0.22168 0.0810547)"/>
</clipPath>
</defs>
</svg>
