<svg width="132" height="133" viewBox="0 0 132 133" fill="none" xmlns="http://www.w3.org/2000/svg">
<circle cx="66" cy="66.4316" r="65" fill="white"/>
<circle cx="66" cy="66.4316" r="65" fill="url(#paint0_linear_2124_813)"/>
<circle cx="66" cy="66.4316" r="65" stroke="white" stroke-width="2"/>
<path d="M96.7068 51.274L89.7068 44.274C89.5193 44.0865 89.2649 43.9812 88.9998 43.9812C88.7346 43.9812 88.4803 44.0865 88.2928 44.274L57.9998 74.567L45.7068 62.274C45.5193 62.0865 45.265 61.9812 44.9998 61.9812C44.7346 61.9812 44.4803 62.0865 44.2928 62.274L37.2928 69.274C37.1053 69.4615 37 69.7158 37 69.981C37 70.2462 37.1053 70.5005 37.2928 70.688L57.2928 90.688C57.4803 90.8755 57.7346 90.9808 57.9998 90.9808C58.2649 90.9808 58.5193 90.8755 58.7068 90.688L96.7068 52.688C96.8943 52.5005 96.9996 52.2462 96.9996 51.981C96.9996 51.7158 96.8943 51.4615 96.7068 51.274Z" fill="white"/>
<defs>
<linearGradient id="paint0_linear_2124_813" x1="58.299" y1="0.431692" x2="58.299" y2="132.432" gradientUnits="userSpaceOnUse">
<stop stop-color="#30D0DB"/>
<stop offset="1" stop-color="#3AB7EB"/>
</linearGradient>
</defs>
</svg>
