<svg width="93" height="91" viewBox="0 0 93 91" fill="none" xmlns="http://www.w3.org/2000/svg">
<g clip-path="url(#clip0_2124_806)">
<path d="M90.9924 58.0573C91.2406 58.0573 91.4741 57.9551 91.6347 57.78C91.7952 57.6048 91.8828 57.3567 91.8682 57.1086C91.0216 46.6431 82.118 38.4401 71.6233 38.4401C71.1417 38.4401 70.7476 38.8342 70.7476 39.3158V57.1816C70.7476 57.6632 71.1417 58.0573 71.6233 58.0573H90.9924Z" fill="#8977FF"/>
<path d="M88.5405 72.9893C90.6131 70.0262 91.9706 66.5086 92.2771 62.699C92.3063 62.4508 92.2187 62.2173 92.0435 62.0275C91.8684 61.8524 91.6348 61.7502 91.4013 61.7502H53.3345L49.7584 52.9633C49.2038 53.0801 48.6199 53.1677 47.9923 53.1677C47.1895 53.1677 46.3429 53.0801 45.292 52.8757L50.9407 66.7567C51.5975 69.0191 52.6193 71.1209 53.9329 73.0039C51.3494 74.6824 49.6271 77.5871 49.6271 80.9004C49.6271 86.0966 53.8453 90.3149 59.0416 90.3149C63.9021 90.3149 67.9015 86.6221 68.4123 81.8929C69.3319 82.0243 70.2806 82.1119 71.2294 82.1119C72.1781 82.1119 73.1269 82.0243 74.061 81.8929C74.5573 86.6221 78.5713 90.3149 83.4172 90.3149C88.6134 90.3149 92.8463 86.0966 92.8463 80.9004C92.8463 77.5871 91.124 74.6824 88.5405 73.0039V72.9893ZM59.0416 86.1988C56.1078 86.1988 53.7286 83.8196 53.7286 80.8858C53.7286 77.952 56.1078 75.5728 59.0416 75.5728C61.9754 75.5728 64.3546 77.952 64.3546 80.8858C64.3546 83.8196 61.9754 86.1988 59.0416 86.1988ZM83.4172 86.1988C80.4834 86.1988 78.1042 83.8196 78.1042 80.8858C78.1042 77.952 80.4834 75.5728 83.4172 75.5728C86.351 75.5728 88.7302 77.952 88.7302 80.8858C88.7302 83.8196 86.351 86.1988 83.4172 86.1988Z" fill="#8977FF"/>
<path d="M35.0455 68.7272C34.8849 67.7346 34.3303 66.3042 33.5567 65.5014L25.7915 55.4009V66.6983L27.4263 84.9143C27.8204 87.7606 29.7179 89.2786 32.3452 88.9867C34.8119 88.7093 36.2132 87.4395 35.9796 83.8342C35.7607 80.3457 35.0455 68.7272 35.0455 68.7272Z" fill="#3D91FD"/>
<path d="M26.5795 39.0823L29.601 44.2931C30.3308 45.3732 31.4401 46.176 32.7245 46.5117L46.4887 49.5332C48.3716 49.8543 50.8384 49.6499 51.4368 46.8912C52.0207 44.2493 50.5027 42.5124 48.0943 41.7972L37.6872 37.9438L30.5643 24.924C28.3457 20.3408 25.2367 18.9396 22.5656 18.9396C20.2886 18.9396 18.3035 19.9613 17.4569 20.9101C12.8591 25.9749 7.88184 44.118 7.88184 44.118C7.32719 45.9425 7.2688 47.4897 7.50234 49.504L10.3778 65.9684C10.3778 65.9684 3.26945 76.3025 1.12381 79.4115C-0.525554 81.8199 -0.437977 84.9143 1.70766 86.4469C4.02845 88.0962 6.62657 87.4102 8.71382 85.104C11.4579 82.068 17.9678 75.0619 20.6389 71.5296C21.9671 69.778 22.1423 68.1725 22.1131 66.275C22.0547 63.4579 22.2445 52.6129 22.2445 52.6129L26.5649 39.0531L26.5795 39.0823Z" fill="#3D91FD"/>
<path d="M20.7119 9.58346C20.7119 14.7067 24.8718 18.8666 29.9951 18.8666C35.1183 18.8666 39.2782 14.7067 39.2782 9.58346C39.2782 4.4602 35.1183 0.300293 29.9951 0.300293C24.8718 0.300293 20.7119 4.4602 20.7119 9.58346Z" fill="#3D91FD"/>
</g>
<defs>
<clipPath id="clip0_2124_806">
<rect width="92.8317" height="90" fill="white" transform="translate(0 0.300293)"/>
</clipPath>
</defs>
</svg>
