<svg width="98" height="99" viewBox="0 0 98 99" fill="none" xmlns="http://www.w3.org/2000/svg">
<circle cx="49.0522" cy="49.5491" r="48.6958" fill="#8977FF"/>
<path d="M68.8844 48.1322H70.3011C72.9503 48.1322 74.2734 48.1322 75.2594 48.7017C75.9055 49.0747 76.4419 49.6112 76.8149 50.2572C77.3844 51.2432 77.3844 52.5664 77.3844 55.2156C77.3844 57.8647 77.3844 59.1879 76.8149 60.1739C76.4419 60.8199 75.9055 61.3564 75.2594 61.7294C74.2734 62.2989 72.9503 62.2989 70.3011 62.2989H68.8844M29.2178 48.1322H27.8011C25.1519 48.1322 23.8288 48.1322 22.8428 48.7017C22.1967 49.0747 21.6603 49.6112 21.2873 50.2572C20.7178 51.2432 20.7178 52.5664 20.7178 55.2156C20.7178 57.8647 20.7178 59.1879 21.2873 60.1739C21.6603 60.8199 22.1967 61.3564 22.8428 61.7294C23.8288 62.2989 25.1519 62.2989 27.8011 62.2989H29.2178M46.2178 38.2156H51.8844C59.8971 38.2156 63.9063 38.2156 66.3939 40.7061C68.8844 43.1937 68.8844 47.2029 68.8844 55.2156C68.8844 63.2282 68.8844 67.2374 66.3939 69.7251C63.9063 72.2156 59.8971 72.2156 51.8844 72.2156H49.0511C49.0511 72.2156 47.6344 77.8822 37.7178 77.8822C37.7178 77.8822 40.5511 75.0234 40.5511 72.1674C36.1509 72.0342 33.5244 71.5441 31.7083 69.7251C29.2178 67.2374 29.2178 63.2282 29.2178 55.2156C29.2178 47.2029 29.2178 43.1937 31.7083 40.7061C34.1959 38.2156 38.2051 38.2156 46.2178 38.2156Z" stroke="white" stroke-width="3" stroke-linejoin="round"/>
<path d="M53.3008 25.4656C53.3008 26.5927 52.853 27.6738 52.056 28.4708C51.259 29.2678 50.178 29.7156 49.0508 29.7156C47.9236 29.7156 46.8426 29.2678 46.0456 28.4708C45.2485 27.6738 44.8008 26.5927 44.8008 25.4656C44.8008 24.3384 45.2485 23.2574 46.0456 22.4604C46.8426 21.6633 47.9236 21.2156 49.0508 21.2156C50.178 21.2156 51.259 21.6633 52.056 22.4604C52.853 23.2574 53.3008 24.3384 53.3008 25.4656Z" stroke="white" stroke-width="3"/>
<path d="M49.0508 29.7156V38.2156M40.5508 49.5489V52.3822M57.5508 49.5489V52.3822" stroke="white" stroke-width="3" stroke-linecap="round" stroke-linejoin="round"/>
<path d="M43.3848 62.2988C43.3848 62.2988 45.2746 63.7155 49.0514 63.7155C52.8283 63.7155 54.7181 62.2988 54.7181 62.2988" stroke="white" stroke-width="3" stroke-linecap="round"/>
</svg>
