<svg width="44" height="44" viewBox="0 0 44 44" fill="none" xmlns="http://www.w3.org/2000/svg">
<circle cx="22" cy="22.1307" r="21.75" fill="url(#paint0_linear_2125_843)"/>
<path d="M25.9089 30.8407L23.7889 28.3007C23.2022 28.4474 22.6022 28.5207 21.9889 28.5207C20.6822 28.5207 19.4822 28.2141 18.3889 27.6007C17.2956 26.9874 16.4289 26.1407 15.7889 25.0607C15.1489 23.9674 14.8289 22.7341 14.8289 21.3607C14.8289 20.0007 15.1489 18.7807 15.7889 17.7007C16.4289 16.6074 17.2956 15.7541 18.3889 15.1407C19.4822 14.5274 20.6822 14.2207 21.9889 14.2207C23.3089 14.2207 24.5089 14.5274 25.5889 15.1407C26.6822 15.7541 27.5422 16.6074 28.1689 17.7007C28.8089 18.7807 29.1289 20.0007 29.1289 21.3607C29.1289 22.6007 28.8622 23.7341 28.3289 24.7607C27.8089 25.7741 27.0956 26.6007 26.1889 27.2407L29.3889 30.8407H25.9089ZM17.7089 21.3607C17.7089 22.2941 17.8889 23.1141 18.2489 23.8207C18.6089 24.5274 19.1089 25.0741 19.7489 25.4607C20.4022 25.8341 21.1489 26.0207 21.9889 26.0207C22.8289 26.0207 23.5689 25.8341 24.2089 25.4607C24.8489 25.0741 25.3489 24.5274 25.7089 23.8207C26.0689 23.1141 26.2489 22.2941 26.2489 21.3607C26.2489 20.4274 26.0689 19.6141 25.7089 18.9207C25.3489 18.2141 24.8489 17.6741 24.2089 17.3007C23.5689 16.9274 22.8289 16.7407 21.9889 16.7407C21.1489 16.7407 20.4022 16.9274 19.7489 17.3007C19.1089 17.6741 18.6089 18.2141 18.2489 18.9207C17.8889 19.6141 17.7089 20.4274 17.7089 21.3607Z" fill="white"/>
<defs>
<linearGradient id="paint0_linear_2125_843" x1="19.4622" y1="0.380754" x2="19.4622" y2="43.8807" gradientUnits="userSpaceOnUse">
<stop stop-color="#30D0DB"/>
<stop offset="1" stop-color="#3AB7EB"/>
</linearGradient>
</defs>
</svg>
