<svg width="428" height="339" viewBox="0 0 428 339" fill="none" xmlns="http://www.w3.org/2000/svg">
<g clip-path="url(#clip0_2251_1241)">
<path d="M224.798 85.3037C223.633 92.1303 218.74 96.1473 216.606 101.951C215.748 104.292 216.336 108.765 215.686 109.542C215.282 110.047 211.811 110.121 210.217 110.983C205.815 113.337 202.614 117.132 198.138 119.055C193.417 119.215 187.813 110.527 181.878 108.938C162.049 103.615 151.994 130.65 150.829 146.225C149.664 161.702 152.104 175.7 158.272 188.133C161.976 195.601 167.028 202.489 173.441 208.81C156.028 196.254 141.73 184.092 129.994 172.435C129.945 172.386 129.896 172.336 129.859 172.299C118.198 160.039 106.83 146.398 97.8414 132.757C95.4133 128.826 93.3042 124.982 91.4402 121.26C91.428 121.211 91.3912 121.162 91.3789 121.125C89.4536 117.145 87.7614 113.288 86.2776 109.554C86.204 109.369 86.1182 109.184 86.0569 108.987C63.0397 50.0002 94.4446 21.6096 116.444 9.60767C124.979 4.93751 132.091 2.73181 134.053 2.17731C134.115 2.16498 134.176 2.14034 134.225 2.12802C134.458 2.0664 134.581 2.02944 134.581 2.02944C172.166 -6.59619 208.01 24.7641 208.991 25.639C190.572 16.4096 175.17 12.7375 162.331 12.7375C118.909 12.7375 104.868 54.5965 103.372 64.097C101.447 76.407 102.366 103.233 119.448 127.347C124.513 134.778 130.264 141.481 136.187 147.026C134.482 132.042 135.549 118.143 139.302 103.541C145.102 80.8923 162 52.4154 187.396 49.2609C207.777 46.7348 228.489 63.8012 224.81 85.279L224.798 85.3037Z" fill="url(#paint0_linear_2251_1241)"/>
<path d="M230.723 26.083C260.914 -1.49427 315.164 2.43656 337.396 37.9863C355.423 64.8244 352.124 89.408 340.082 117.146C305.538 143.355 260.497 164.87 246.505 171.277C245.61 170.144 244.224 169.429 242.679 169.429C239.969 169.429 237.774 171.634 237.773 174.357C237.773 177.081 239.969 179.287 242.679 179.287C245.389 179.287 247.584 177.081 247.584 174.357C247.584 174.074 247.56 173.803 247.511 173.532C261.037 167.322 303.49 147.039 337.715 121.951C332.712 131.094 325.366 140.817 318.499 149.627C286.678 171.228 250.969 188.257 238.792 193.839C237.897 192.718 236.511 191.991 234.966 191.991C232.256 191.991 230.061 194.184 230.061 196.907C230.061 199.63 232.268 201.837 234.966 201.837C237.66 201.837 239.864 199.637 239.87 196.919C239.869 196.64 239.845 196.373 239.797 196.106C251.25 190.869 283.391 175.541 313.741 155.751C312.576 157.242 311.448 158.696 310.369 160.101C306.801 164.574 304.532 167.519 300.657 171.635C278.646 194.665 255.15 216.537 228.699 234.071C223.561 237.423 217.908 241.133 215.651 241.515C212.133 242.204 217.062 234.947 217.699 232.149C228.319 197.043 177.895 202.317 171.457 170.378C168.453 158.154 169.127 143.207 176.901 132.93C180.396 129.418 179.122 139.731 179.465 141.481C179.624 148.246 181.904 153.176 185.645 156.54C196.092 165.141 211.176 163.293 224.506 160.188C234.426 157.748 243.218 153.521 252.17 148.752C271.79 138.179 292.331 123.997 303.036 103.271C319.382 74.843 306.666 43.606 275.58 33.9082C261.11 29.0902 242.606 30.1371 227.719 36.1133C222.887 37.937 218.423 40.6971 216.719 40.6602C216.511 40.3891 216.78 40.0324 217.025 39.6875C217.626 38.8126 219 37.3461 220.741 35.584C223.917 32.3925 227.657 28.8432 230.723 26.083ZM232.538 98.625C239.307 82.569 262.974 81.6936 274.183 94.0898V94.0654C284.005 104.934 279.946 117.354 271.938 126.769L271.901 126.806C271.435 127.262 265.881 132.684 257.297 138.759C246.359 146.546 230.515 155.43 214.07 156.576C213.874 156.589 213.665 156.614 213.481 156.626C206.97 157.008 200.361 156.157 193.947 153.521C193.923 153.521 193.91 153.508 193.91 153.508H193.898C190.992 151.684 188.784 149.011 187.791 145.203C187.521 144.143 187.326 142.985 187.252 141.74C187.375 141.826 187.497 141.938 187.607 142.073L186.467 139.731C186.479 139.744 186.492 139.781 186.528 139.843H186.54C186.847 140.336 188.11 142.184 190.501 144.229C190.538 144.266 190.575 144.291 190.611 144.328C196.387 149.257 208.662 155.406 230.453 148.16C230.49 148.136 230.515 148.135 230.552 148.123C230.555 148.123 230.576 148.123 230.588 148.111C230.612 148.099 230.662 148.098 230.724 148.062C231.373 147.827 232.024 147.569 232.661 147.322C232.698 147.298 232.722 147.285 232.759 147.285C233.47 147.002 234.169 146.719 234.855 146.423C234.954 146.386 235.027 146.361 235.125 146.312C235.162 146.299 235.212 146.275 235.261 146.238C235.273 146.238 235.298 146.213 235.334 146.201C235.395 146.189 235.456 146.164 235.518 146.127C235.542 146.115 235.592 146.078 235.641 146.065C235.665 146.065 235.665 146.053 235.678 146.053C235.739 146.016 235.825 145.979 235.898 145.942C235.996 145.893 236.07 145.856 236.168 145.819C236.499 145.684 236.805 145.523 237.1 145.351C237.443 145.178 237.774 144.993 238.105 144.809C238.424 144.636 238.731 144.439 239.025 144.242C239.455 143.971 239.871 143.675 240.264 143.379C241.477 142.443 242.434 141.396 243.035 140.213C243.133 140.041 243.206 139.868 243.268 139.695C243.28 139.646 243.317 139.621 243.329 139.571C245.536 134.199 236.892 136.971 235.261 136.38C231.374 134.975 227.082 124.354 227.118 120.436C227.13 117.614 230.38 115.704 231.079 112.66C232.121 108.027 230.454 103.578 232.538 98.625ZM220.508 152.83H220.889L222.127 152.535L220.508 152.83Z" fill="white"/>
<path d="M230.723 26.083C260.914 -1.49427 315.164 2.43656 337.396 37.9863C355.423 64.8244 352.124 89.408 340.082 117.146C305.538 143.355 260.497 164.87 246.505 171.277C245.61 170.144 244.224 169.429 242.679 169.429C239.969 169.429 237.774 171.634 237.773 174.357C237.773 177.081 239.969 179.287 242.679 179.287C245.389 179.287 247.584 177.081 247.584 174.357C247.584 174.074 247.56 173.803 247.511 173.532C261.037 167.322 303.49 147.039 337.715 121.951C332.712 131.094 325.366 140.817 318.499 149.627C286.678 171.228 250.969 188.257 238.792 193.839C237.897 192.718 236.511 191.991 234.966 191.991C232.256 191.991 230.061 194.184 230.061 196.907C230.061 199.63 232.268 201.837 234.966 201.837C237.66 201.837 239.864 199.637 239.87 196.919C239.869 196.64 239.845 196.373 239.797 196.106C251.25 190.869 283.391 175.541 313.741 155.751C312.576 157.242 311.448 158.696 310.369 160.101C306.801 164.574 304.532 167.519 300.657 171.635C278.646 194.665 255.15 216.537 228.699 234.071C223.561 237.423 217.908 241.133 215.651 241.515C212.133 242.204 217.062 234.947 217.699 232.149C228.319 197.043 177.895 202.317 171.457 170.378C168.453 158.154 169.127 143.207 176.901 132.93C180.396 129.418 179.122 139.731 179.465 141.481C179.624 148.246 181.904 153.176 185.645 156.54C196.092 165.141 211.176 163.293 224.506 160.188C234.426 157.748 243.218 153.521 252.17 148.752C271.79 138.179 292.331 123.997 303.036 103.271C319.382 74.843 306.666 43.606 275.58 33.9082C261.11 29.0902 242.606 30.1371 227.719 36.1133C222.887 37.937 218.423 40.6971 216.719 40.6602C216.511 40.3891 216.78 40.0324 217.025 39.6875C217.626 38.8126 219 37.3461 220.741 35.584C223.917 32.3925 227.657 28.8432 230.723 26.083ZM232.538 98.625C239.307 82.569 262.974 81.6936 274.183 94.0898V94.0654C284.005 104.934 279.946 117.354 271.938 126.769L271.901 126.806C271.435 127.262 265.881 132.684 257.297 138.759C246.359 146.546 230.515 155.43 214.07 156.576C213.874 156.589 213.665 156.614 213.481 156.626C206.97 157.008 200.361 156.157 193.947 153.521C193.923 153.521 193.91 153.508 193.91 153.508H193.898C190.992 151.684 188.784 149.011 187.791 145.203C187.521 144.143 187.326 142.985 187.252 141.74C187.375 141.826 187.497 141.938 187.607 142.073L186.467 139.731C186.479 139.744 186.492 139.781 186.528 139.843H186.54C186.847 140.336 188.11 142.184 190.501 144.229C190.538 144.266 190.575 144.291 190.611 144.328C196.387 149.257 208.662 155.406 230.453 148.16C230.49 148.136 230.515 148.135 230.552 148.123C230.555 148.123 230.576 148.123 230.588 148.111C230.612 148.099 230.662 148.098 230.724 148.062C231.373 147.827 232.024 147.569 232.661 147.322C232.698 147.298 232.722 147.285 232.759 147.285C233.47 147.002 234.169 146.719 234.855 146.423C234.954 146.386 235.027 146.361 235.125 146.312C235.162 146.299 235.212 146.275 235.261 146.238C235.273 146.238 235.298 146.213 235.334 146.201C235.395 146.189 235.456 146.164 235.518 146.127C235.542 146.115 235.592 146.078 235.641 146.065C235.665 146.065 235.665 146.053 235.678 146.053C235.739 146.016 235.825 145.979 235.898 145.942C235.996 145.893 236.07 145.856 236.168 145.819C236.499 145.684 236.805 145.523 237.1 145.351C237.443 145.178 237.774 144.993 238.105 144.809C238.424 144.636 238.731 144.439 239.025 144.242C239.455 143.971 239.871 143.675 240.264 143.379C241.477 142.443 242.434 141.396 243.035 140.213C243.133 140.041 243.206 139.868 243.268 139.695C243.28 139.646 243.317 139.621 243.329 139.571C245.536 134.199 236.892 136.971 235.261 136.38C231.374 134.975 227.082 124.354 227.118 120.436C227.13 117.614 230.38 115.704 231.079 112.66C232.121 108.027 230.454 103.578 232.538 98.625ZM220.508 152.83H220.889L222.127 152.535L220.508 152.83Z" fill="url(#paint1_linear_2251_1241)"/>
</g>
<path d="M31.5463 290.515C30.739 289.011 29.5706 287.872 28.0411 287.098C26.5541 286.281 24.7909 285.873 22.7515 285.873C19.2252 285.873 16.3998 287.055 14.2755 289.419C12.1512 291.741 11.089 294.857 11.089 298.769C11.089 302.939 12.1936 306.207 14.4029 308.571C16.6547 310.892 19.735 312.053 23.6438 312.053C26.3204 312.053 28.5722 311.365 30.3991 309.99C32.2685 308.614 33.6281 306.636 34.4778 304.057H20.6485V295.932H44.356V306.185C43.5487 308.936 42.1679 311.494 40.2135 313.859C38.3016 316.223 35.8586 318.136 32.8846 319.598C29.9105 321.059 26.5541 321.79 22.8153 321.79C18.3967 321.79 14.4454 320.823 10.9615 318.888C7.52012 316.911 4.82222 314.181 2.86784 310.699C0.955947 307.217 0 303.24 0 298.769C0 294.299 0.955947 290.322 2.86784 286.84C4.82222 283.315 7.52012 280.585 10.9615 278.65C14.4029 276.673 18.3329 275.684 22.7515 275.684C28.1049 275.684 32.6084 276.995 36.2623 279.618C39.9586 282.24 42.4016 285.873 43.5912 290.515H31.5463Z" fill="#333333"/>
<path d="M84.5515 302.896C84.5515 303.928 84.4878 305.003 84.3604 306.121H59.6969C59.8669 308.356 60.5679 310.076 61.8 311.279C63.0746 312.44 64.6254 313.02 66.4523 313.02C69.1714 313.02 71.0621 311.86 72.1242 309.538H83.7231C83.1282 311.903 82.0448 314.031 80.4728 315.922C78.9433 317.814 77.0102 319.297 74.6734 320.372C72.3367 321.446 69.7237 321.984 66.8347 321.984C63.3508 321.984 60.2492 321.231 57.5301 319.727C54.811 318.222 52.6866 316.073 51.1571 313.278C49.6276 310.484 48.8628 307.217 48.8628 303.477C48.8628 299.737 49.6064 296.469 51.0934 293.675C52.6229 290.881 54.7472 288.731 57.4664 287.227C60.1855 285.722 63.3083 284.97 66.8347 284.97C70.2761 284.97 73.3351 285.701 76.0117 287.162C78.6884 288.624 80.7702 290.709 82.2573 293.417C83.7868 296.126 84.5515 299.285 84.5515 302.896ZM73.3988 299.995C73.3988 298.103 72.7615 296.598 71.4869 295.481C70.2123 294.363 68.6191 293.804 66.7072 293.804C64.8803 293.804 63.3295 294.342 62.0549 295.416C60.8228 296.491 60.0581 298.017 59.7606 299.995H73.3988Z" fill="#333333"/>
<path d="M112.606 285.099C116.77 285.099 120.084 286.474 122.548 289.226C125.055 291.934 126.308 295.674 126.308 300.446V321.468H115.474V301.929C115.474 299.522 114.858 297.652 113.626 296.319C112.394 294.986 110.737 294.32 108.655 294.32C106.573 294.32 104.916 294.986 103.684 296.319C102.452 297.652 101.836 299.522 101.836 301.929V321.468H90.938V285.486H101.836V290.258C102.94 288.667 104.427 287.42 106.297 286.517C108.166 285.572 110.269 285.099 112.606 285.099Z" fill="#333333"/>
<path d="M162.878 288.968C162.878 292.966 161.646 296.083 159.182 298.318C156.717 300.51 153.064 301.607 148.22 301.607H138.661V321.468H135.793V276.2H148.22C153.149 276.2 156.824 277.361 159.245 279.682C161.667 281.961 162.878 285.056 162.878 288.968ZM148.22 299.027C156.08 299.027 160.01 295.674 160.01 288.968C160.01 285.658 159.075 283.143 157.206 281.423C155.337 279.661 152.341 278.779 148.22 278.779H138.661V299.027H148.22Z" fill="#333333"/>
<path d="M169.436 303.928C169.436 300.317 170.137 297.157 171.539 294.449C172.983 291.741 174.959 289.656 177.466 288.194C180.015 286.732 182.904 286.002 186.133 286.002C189.787 286.002 192.888 286.904 195.437 288.71C197.987 290.515 199.771 292.815 200.791 295.61V286.453H203.659V321.468H200.791V312.247C199.771 315.084 197.965 317.427 195.374 319.275C192.825 321.081 189.744 321.984 186.133 321.984C182.904 321.984 180.015 321.253 177.466 319.791C174.959 318.287 172.983 316.18 171.539 313.472C170.137 310.72 169.436 307.539 169.436 303.928ZM200.791 303.928C200.791 300.876 200.153 298.189 198.879 295.868C197.647 293.503 195.947 291.698 193.78 290.451C191.614 289.161 189.192 288.516 186.515 288.516C183.711 288.516 181.247 289.14 179.123 290.386C176.998 291.59 175.341 293.353 174.152 295.674C172.962 297.996 172.367 300.747 172.367 303.928C172.367 307.109 172.962 309.861 174.152 312.182C175.341 314.504 176.998 316.288 179.123 317.534C181.289 318.781 183.754 319.404 186.515 319.404C189.192 319.404 191.614 318.781 193.78 317.534C195.99 316.245 197.71 314.439 198.943 312.118C200.175 309.753 200.791 307.023 200.791 303.928Z" fill="#333333"/>
<path d="M217.606 293.675C218.456 291.096 219.964 289.14 222.131 287.807C224.298 286.431 227.059 285.744 230.416 285.744V288.774H229.46C226.061 288.774 223.235 289.763 220.984 291.741C218.732 293.675 217.606 296.856 217.606 301.284V321.468H214.738V286.453H217.606V293.675Z" fill="#333333"/>
<path d="M268.82 301.607C268.82 303.154 268.777 304.315 268.692 305.089H238.803C238.888 308.227 239.568 310.871 240.842 313.02C242.117 315.17 243.795 316.782 245.877 317.857C247.959 318.931 250.232 319.469 252.696 319.469C256.095 319.469 258.942 318.631 261.236 316.954C263.53 315.234 264.975 312.913 265.57 309.99H268.565C267.885 313.558 266.143 316.46 263.339 318.695C260.535 320.887 256.987 321.984 252.696 321.984C249.467 321.984 246.578 321.253 244.029 319.791C241.48 318.33 239.483 316.245 238.038 313.536C236.594 310.785 235.872 307.582 235.872 303.928C235.872 300.274 236.573 297.093 237.975 294.384C239.419 291.676 241.416 289.613 243.965 288.194C246.514 286.732 249.425 286.002 252.696 286.002C256.01 286.002 258.878 286.732 261.3 288.194C263.764 289.613 265.633 291.526 266.908 293.933C268.183 296.298 268.82 298.855 268.82 301.607ZM265.952 302.703C266.079 299.608 265.527 296.985 264.295 294.836C263.105 292.686 261.47 291.096 259.388 290.064C257.306 288.989 255.054 288.452 252.632 288.452C250.211 288.452 247.959 288.989 245.877 290.064C243.838 291.096 242.16 292.686 240.842 294.836C239.568 296.985 238.888 299.608 238.803 302.703H265.952Z" fill="#333333"/>
<path d="M293.738 285.744C297.859 285.744 301.216 287.033 303.808 289.613C306.399 292.149 307.695 295.932 307.695 300.962V321.468H304.891V301.155C304.891 296.985 303.85 293.804 301.768 291.612C299.686 289.376 296.861 288.259 293.292 288.259C289.553 288.259 286.558 289.462 284.306 291.87C282.097 294.277 280.992 297.845 280.992 302.574V321.468H278.124V286.453H280.992V293.869C281.969 291.246 283.584 289.247 285.836 287.872C288.13 286.453 290.764 285.744 293.738 285.744Z" fill="#333333"/>
<path d="M322.738 288.968V312.118C322.738 314.697 323.206 316.481 324.14 317.47C325.075 318.416 326.732 318.888 329.111 318.888H332.999V321.468H328.665C325.649 321.468 323.418 320.759 321.973 319.34C320.571 317.878 319.87 315.471 319.87 312.118V288.968H314.645V286.453H319.87V277.554H322.738V286.453H332.999V288.968H322.738Z" fill="#333333"/>
<path d="M342.665 278.65C341.985 278.65 341.412 278.435 340.945 278.006C340.477 277.533 340.244 276.909 340.244 276.135C340.244 275.405 340.477 274.803 340.945 274.33C341.412 273.857 341.985 273.621 342.665 273.621C343.345 273.621 343.919 273.857 344.386 274.33C344.853 274.803 345.087 275.405 345.087 276.135C345.087 276.909 344.853 277.533 344.386 278.006C343.919 278.435 343.345 278.65 342.665 278.65ZM344.067 286.453V321.468H341.199V286.453H344.067Z" fill="#333333"/>
<path d="M370.831 285.744C374.953 285.744 378.309 287.033 380.901 289.613C383.492 292.149 384.788 295.932 384.788 300.962V321.468H381.984V301.155C381.984 296.985 380.943 293.804 378.861 291.612C376.78 289.376 373.954 288.259 370.385 288.259C366.646 288.259 363.651 289.462 361.399 291.87C359.19 294.277 358.085 297.845 358.085 302.574V321.468H355.218V286.453H358.085V293.869C359.063 291.246 360.677 289.247 362.929 287.872C365.223 286.453 367.857 285.744 370.831 285.744Z" fill="#333333"/>
<path d="M410.474 286.002C414.128 286.002 417.23 286.904 419.779 288.71C422.328 290.472 424.112 292.751 425.132 295.545V286.453H428V322.564C428 325.788 427.299 328.604 425.897 331.011C424.495 333.462 422.604 335.332 420.225 336.622C417.846 337.954 415.19 338.621 412.259 338.621C407.925 338.621 404.335 337.567 401.488 335.461C398.642 333.354 396.772 330.517 395.88 326.949H398.748C399.598 329.743 401.191 331.957 403.528 333.591C405.865 335.267 408.775 336.106 412.259 336.106C414.68 336.106 416.869 335.547 418.823 334.429C420.777 333.354 422.307 331.785 423.411 329.722C424.559 327.701 425.132 325.315 425.132 322.564V312.311C424.112 315.105 422.307 317.427 419.715 319.275C417.166 321.081 414.086 321.984 410.474 321.984C407.245 321.984 404.356 321.253 401.807 319.791C399.3 318.287 397.325 316.18 395.88 313.472C394.478 310.72 393.777 307.539 393.777 303.928C393.777 300.317 394.478 297.157 395.88 294.449C397.325 291.741 399.3 289.656 401.807 288.194C404.356 286.732 407.245 286.002 410.474 286.002ZM425.132 303.928C425.132 300.876 424.495 298.189 423.22 295.868C421.988 293.503 420.289 291.698 418.122 290.451C415.955 289.161 413.533 288.516 410.857 288.516C408.053 288.516 405.588 289.14 403.464 290.386C401.34 291.59 399.683 293.353 398.493 295.674C397.303 297.996 396.709 300.747 396.709 303.928C396.709 307.109 397.303 309.861 398.493 312.182C399.683 314.504 401.34 316.288 403.464 317.534C405.631 318.781 408.095 319.404 410.857 319.404C413.533 319.404 415.955 318.781 418.122 317.534C420.331 316.245 422.052 314.439 423.284 312.118C424.516 309.753 425.132 307.023 425.132 303.928Z" fill="#333333"/>
<defs>
<linearGradient id="paint0_linear_2251_1241" x1="151.619" y1="33.4093" x2="151.619" y2="222.465" gradientUnits="userSpaceOnUse">
<stop stop-color="#30D0DB"/>
<stop offset="1" stop-color="#3AB7EB"/>
</linearGradient>
<linearGradient id="paint1_linear_2251_1241" x1="240.927" y1="7.98917" x2="240.927" y2="241.561" gradientUnits="userSpaceOnUse">
<stop stop-color="#3D91FD"/>
<stop offset="1" stop-color="#8977FF"/>
</linearGradient>
<clipPath id="clip0_2251_1241">
<rect width="272" height="241" fill="white" transform="translate(78 0.539062)"/>
</clipPath>
</defs>
</svg>
