<svg width="343" height="330" viewBox="0 0 343 330" fill="none" xmlns="http://www.w3.org/2000/svg">
<path d="M111.583 228.3C110.383 225.14 108.383 222.62 105.583 220.74C102.823 218.86 99.543 217.92 95.743 217.92C92.423 217.92 89.423 218.7 86.743 220.26C84.063 221.82 81.943 224.04 80.383 226.92C78.823 229.8 78.043 233.16 78.043 237C78.043 240.84 78.823 244.2 80.383 247.08C81.943 249.96 84.063 252.18 86.743 253.74C89.423 255.26 92.423 256.02 95.743 256.02C98.943 256.02 101.843 255.3 104.443 253.86C107.043 252.42 109.123 250.38 110.683 247.74C112.243 245.06 113.103 241.94 113.263 238.38H94.483V236.1H116.023V237.9C115.903 241.82 114.963 245.34 113.203 248.46C111.443 251.58 109.043 254.02 106.003 255.78C102.963 257.54 99.543 258.42 95.743 258.42C91.863 258.42 88.363 257.52 85.243 255.72C82.123 253.88 79.683 251.34 77.923 248.1C76.163 244.82 75.283 241.12 75.283 237C75.283 232.84 76.163 229.14 77.923 225.9C79.683 222.62 82.123 220.08 85.243 218.28C88.363 216.44 91.863 215.52 95.743 215.52C100.263 215.52 104.163 216.66 107.443 218.94C110.763 221.18 113.183 224.3 114.703 228.3H111.583ZM152.93 239.52C152.93 240.96 152.89 242.04 152.81 242.76H124.67C124.75 245.68 125.39 248.14 126.59 250.14C127.79 252.14 129.37 253.64 131.33 254.64C133.29 255.64 135.43 256.14 137.75 256.14C140.95 256.14 143.63 255.36 145.79 253.8C147.95 252.2 149.31 250.04 149.87 247.32H152.69C152.05 250.64 150.41 253.34 147.77 255.42C145.13 257.46 141.79 258.48 137.75 258.48C134.71 258.48 131.99 257.8 129.59 256.44C127.19 255.08 125.31 253.14 123.95 250.62C122.59 248.06 121.91 245.08 121.91 241.68C121.91 238.28 122.57 235.32 123.89 232.8C125.25 230.28 127.13 228.36 129.53 227.04C131.93 225.68 134.67 225 137.75 225C140.87 225 143.57 225.68 145.85 227.04C148.17 228.36 149.93 230.14 151.13 232.38C152.33 234.58 152.93 236.96 152.93 239.52ZM150.23 240.54C150.35 237.66 149.83 235.22 148.67 233.22C147.55 231.22 146.01 229.74 144.05 228.78C142.09 227.78 139.97 227.28 137.69 227.28C135.41 227.28 133.29 227.78 131.33 228.78C129.41 229.74 127.83 231.22 126.59 233.22C125.39 235.22 124.75 237.66 124.67 240.54H150.23ZM175.19 224.76C179.07 224.76 182.23 225.96 184.67 228.36C187.11 230.72 188.33 234.24 188.33 238.92V258H185.69V239.1C185.69 235.22 184.71 232.26 182.75 230.22C180.79 228.14 178.13 227.1 174.77 227.1C171.25 227.1 168.43 228.22 166.31 230.46C164.23 232.7 163.19 236.02 163.19 240.42V258H160.49V225.42H163.19V232.32C164.11 229.88 165.63 228.02 167.75 226.74C169.91 225.42 172.39 224.76 175.19 224.76ZM198.652 218.16C198.012 218.16 197.472 217.96 197.032 217.56C196.592 217.12 196.372 216.54 196.372 215.82C196.372 215.14 196.592 214.58 197.032 214.14C197.472 213.7 198.012 213.48 198.652 213.48C199.292 213.48 199.832 213.7 200.272 214.14C200.712 214.58 200.932 215.14 200.932 215.82C200.932 216.54 200.712 217.12 200.272 217.56C199.832 217.96 199.292 218.16 198.652 218.16ZM199.972 225.42V258H197.272V225.42H199.972ZM236.81 225.42V258H234.11V250.92C233.19 253.4 231.65 255.3 229.49 256.62C227.37 257.9 224.93 258.54 222.17 258.54C218.29 258.54 215.11 257.36 212.63 255C210.19 252.6 208.97 249.06 208.97 244.38V225.42H211.61V244.2C211.61 248.08 212.59 251.06 214.55 253.14C216.51 255.18 219.17 256.2 222.53 256.2C226.05 256.2 228.85 255.08 230.93 252.84C233.05 250.6 234.11 247.28 234.11 242.88V225.42H236.81ZM256.913 258.48C253.273 258.48 250.293 257.68 247.973 256.08C245.693 254.48 244.413 252.2 244.133 249.24H246.893C247.093 251.36 248.053 253.04 249.773 254.28C251.533 255.52 253.913 256.14 256.913 256.14C259.393 256.14 261.353 255.52 262.793 254.28C264.273 253 265.013 251.44 265.013 249.6C265.013 248.32 264.613 247.28 263.813 246.48C263.053 245.64 262.093 245 260.933 244.56C259.773 244.12 258.193 243.64 256.193 243.12C253.793 242.48 251.853 241.86 250.373 241.26C248.893 240.62 247.633 239.68 246.593 238.44C245.553 237.2 245.033 235.54 245.033 233.46C245.033 231.94 245.493 230.54 246.413 229.26C247.333 227.94 248.613 226.9 250.253 226.14C251.893 225.38 253.753 225 255.833 225C259.233 225 261.973 225.86 264.053 227.58C266.173 229.26 267.313 231.6 267.473 234.6H264.773C264.653 232.44 263.813 230.68 262.253 229.32C260.693 227.96 258.533 227.28 255.773 227.28C253.453 227.28 251.533 227.88 250.013 229.08C248.493 230.28 247.733 231.74 247.733 233.46C247.733 234.98 248.153 236.22 248.993 237.18C249.873 238.1 250.933 238.82 252.173 239.34C253.453 239.82 255.133 240.34 257.213 240.9C259.493 241.5 261.313 242.1 262.673 242.7C264.073 243.26 265.253 244.1 266.213 245.22C267.173 246.3 267.653 247.76 267.653 249.6C267.653 251.28 267.193 252.8 266.273 254.16C265.353 255.52 264.073 256.58 262.433 257.34C260.793 258.1 258.953 258.48 256.913 258.48ZM34.8636 284.08C34.8636 286.32 34.3236 288.42 33.2436 290.38C32.2036 292.34 30.5436 293.92 28.2636 295.12C26.0236 296.32 23.1836 296.92 19.7436 296.92H12.7236V313H4.32359V271.12H19.7436C22.9836 271.12 25.7436 271.68 28.0236 272.8C30.3036 273.92 32.0036 275.46 33.1236 277.42C34.2836 279.38 34.8636 281.6 34.8636 284.08ZM19.3836 290.14C21.7036 290.14 23.4236 289.62 24.5436 288.58C25.6636 287.5 26.2236 286 26.2236 284.08C26.2236 280 23.9436 277.96 19.3836 277.96H12.7236V290.14H19.3836ZM38.0675 296.26C38.0675 292.9 38.7275 289.92 40.0475 287.32C41.4075 284.72 43.2275 282.72 45.5075 281.32C47.8275 279.92 50.4075 279.22 53.2475 279.22C55.7275 279.22 57.8875 279.72 59.7275 280.72C61.6075 281.72 63.1075 282.98 64.2275 284.5V279.76H72.6875V313H64.2275V308.14C63.1475 309.7 61.6475 311 59.7275 312.04C57.8475 313.04 55.6675 313.54 53.1875 313.54C50.3875 313.54 47.8275 312.82 45.5075 311.38C43.2275 309.94 41.4075 307.92 40.0475 305.32C38.7275 302.68 38.0675 299.66 38.0675 296.26ZM64.2275 296.38C64.2275 294.34 63.8275 292.6 63.0275 291.16C62.2275 289.68 61.1475 288.56 59.7875 287.8C58.4275 287 56.9675 286.6 55.4075 286.6C53.8475 286.6 52.4075 286.98 51.0875 287.74C49.7675 288.5 48.6875 289.62 47.8475 291.1C47.0475 292.54 46.6475 294.26 46.6475 296.26C46.6475 298.26 47.0475 300.02 47.8475 301.54C48.6875 303.02 49.7675 304.16 51.0875 304.96C52.4475 305.76 53.8875 306.16 55.4075 306.16C56.9675 306.16 58.4275 305.78 59.7875 305.02C61.1475 304.22 62.2275 303.1 63.0275 301.66C63.8275 300.18 64.2275 298.42 64.2275 296.38ZM88.6916 284.92C89.7716 283.16 91.1716 281.78 92.8916 280.78C94.6516 279.78 96.6516 279.28 98.8916 279.28V288.1H96.6716C94.0316 288.1 92.0316 288.72 90.6716 289.96C89.3516 291.2 88.6916 293.36 88.6916 296.44V313H80.2916V279.76H88.6916V284.92ZM134.849 295.66C134.849 296.86 134.769 297.94 134.609 298.9H110.309C110.509 301.3 111.349 303.18 112.829 304.54C114.309 305.9 116.129 306.58 118.289 306.58C121.409 306.58 123.629 305.24 124.949 302.56H134.009C133.049 305.76 131.209 308.4 128.489 310.48C125.769 312.52 122.429 313.54 118.469 313.54C115.269 313.54 112.389 312.84 109.829 311.44C107.309 310 105.329 307.98 103.889 305.38C102.489 302.78 101.789 299.78 101.789 296.38C101.789 292.94 102.489 289.92 103.889 287.32C105.289 284.72 107.249 282.72 109.769 281.32C112.289 279.92 115.189 279.22 118.469 279.22C121.629 279.22 124.449 279.9 126.929 281.26C129.449 282.62 131.389 284.56 132.749 287.08C134.149 289.56 134.849 292.42 134.849 295.66ZM126.149 293.26C126.109 291.1 125.329 289.38 123.809 288.1C122.289 286.78 120.429 286.12 118.229 286.12C116.149 286.12 114.389 286.76 112.949 288.04C111.549 289.28 110.689 291.02 110.369 293.26H126.149ZM158.801 279.28C162.761 279.28 165.961 280.54 168.401 283.06C170.841 285.54 172.061 289.02 172.061 293.5V313H163.661V294.64C163.661 292 163.001 289.98 161.681 288.58C160.361 287.14 158.561 286.42 156.281 286.42C153.961 286.42 152.121 287.14 150.761 288.58C149.441 289.98 148.781 292 148.781 294.64V313H140.381V279.76H148.781V283.9C149.901 282.46 151.321 281.34 153.041 280.54C154.801 279.7 156.721 279.28 158.801 279.28ZM189.229 286.66V302.74C189.229 303.86 189.489 304.68 190.009 305.2C190.569 305.68 191.489 305.92 192.769 305.92H196.669V313H191.389C184.309 313 180.769 309.56 180.769 302.68V286.66H176.809V279.76H180.769V271.54H189.229V279.76H196.669V286.66H189.229ZM206.37 275.8C204.89 275.8 203.65 275.34 202.65 274.42C201.69 273.46 201.21 272.28 201.21 270.88C201.21 269.48 201.69 268.32 202.65 267.4C203.65 266.44 204.89 265.96 206.37 265.96C207.85 265.96 209.07 266.44 210.03 267.4C211.03 268.32 211.53 269.48 211.53 270.88C211.53 272.28 211.03 273.46 210.03 274.42C209.07 275.34 207.85 275.8 206.37 275.8ZM210.51 279.76V313H202.11V279.76H210.51ZM236.63 279.28C240.59 279.28 243.79 280.54 246.23 283.06C248.67 285.54 249.89 289.02 249.89 293.5V313H241.49V294.64C241.49 292 240.83 289.98 239.51 288.58C238.19 287.14 236.39 286.42 234.11 286.42C231.79 286.42 229.95 287.14 228.59 288.58C227.27 289.98 226.61 292 226.61 294.64V313H218.21V279.76H226.61V283.9C227.73 282.46 229.15 281.34 230.87 280.54C232.63 279.7 234.55 279.28 236.63 279.28ZM270.297 279.22C272.777 279.22 274.957 279.72 276.837 280.72C278.717 281.68 280.197 282.94 281.277 284.5V279.76H289.737V313.24C289.737 316.32 289.117 319.06 287.878 321.46C286.637 323.9 284.777 325.82 282.297 327.22C279.817 328.66 276.817 329.38 273.297 329.38C268.577 329.38 264.697 328.28 261.657 326.08C258.657 323.88 256.957 320.88 256.557 317.08H264.897C265.337 318.6 266.277 319.8 267.717 320.68C269.197 321.6 270.977 322.06 273.057 322.06C275.497 322.06 277.477 321.32 278.997 319.84C280.517 318.4 281.277 316.2 281.277 313.24V308.08C280.197 309.64 278.697 310.94 276.777 311.98C274.897 313.02 272.737 313.54 270.297 313.54C267.497 313.54 264.937 312.82 262.617 311.38C260.297 309.94 258.457 307.92 257.097 305.32C255.777 302.68 255.117 299.66 255.117 296.26C255.117 292.9 255.777 289.92 257.097 287.32C258.457 284.72 260.277 282.72 262.557 281.32C264.877 279.92 267.457 279.22 270.297 279.22ZM281.277 296.38C281.277 294.34 280.877 292.6 280.077 291.16C279.277 289.68 278.197 288.56 276.837 287.8C275.477 287 274.017 286.6 272.457 286.6C270.897 286.6 269.457 286.98 268.137 287.74C266.817 288.5 265.737 289.62 264.897 291.1C264.097 292.54 263.697 294.26 263.697 296.26C263.697 298.26 264.097 300.02 264.897 301.54C265.737 303.02 266.817 304.16 268.137 304.96C269.497 305.76 270.937 306.16 272.457 306.16C274.017 306.16 275.477 305.78 276.837 305.02C278.197 304.22 279.277 303.1 280.077 301.66C280.877 300.18 281.277 298.42 281.277 296.38ZM322.002 302.2H302.022L298.002 313H295.062L310.542 271.84H313.542L328.962 313H326.022L322.002 302.2ZM321.162 299.92L312.042 275.38L302.862 299.92H321.162ZM337.839 270.88V313H335.139V270.88H337.839Z" fill="#15202B"/>
<g clip-path="url(#clip0_2843_1334)">
<path d="M179.916 66.1238C179.008 71.4491 175.194 74.5828 173.531 79.1102C172.862 80.9366 173.321 84.4259 172.814 85.0315C172.499 85.4256 169.794 85.4833 168.552 86.1562C165.12 87.9921 162.626 90.9528 159.137 92.4523C155.458 92.5773 151.09 85.8005 146.464 84.5605C131.009 80.4079 123.172 101.498 122.264 113.648C121.356 125.721 123.258 136.641 128.065 146.34C130.952 152.165 134.889 157.538 139.888 162.469C126.316 152.674 115.172 143.187 106.025 134.093C105.987 134.055 105.949 134.016 105.92 133.988C96.8304 124.423 87.9704 113.782 80.9646 103.141C79.0722 100.075 77.4282 97.0759 75.9755 94.1729C75.9659 94.1345 75.9372 94.096 75.9277 94.0672C74.4271 90.9624 73.1081 87.9537 71.9517 85.0411C71.8943 84.8969 71.8274 84.7527 71.7796 84.5989C53.8398 38.5842 78.3171 16.4372 95.4637 7.07467C102.116 3.43155 107.659 1.71093 109.189 1.27837C109.236 1.26875 109.284 1.24953 109.322 1.23992C109.504 1.19186 109.6 1.16302 109.6 1.16302C138.894 -5.56569 166.831 18.898 167.596 19.5804C153.24 12.3807 141.236 9.51622 131.229 9.51622C97.3848 9.51622 86.4412 42.1697 85.2751 49.5809C83.7746 59.1837 84.4914 80.1099 97.8053 98.9215C101.753 104.718 106.235 109.947 110.852 114.273C109.523 102.584 110.355 91.741 113.279 80.3502C117.8 62.6826 130.971 40.4683 150.765 38.0075C166.65 36.0369 182.793 49.3501 179.925 66.1046L179.916 66.1238Z" fill="url(#paint0_linear_2843_1334)"/>
<path d="M184.53 19.9263C208.061 -1.58618 250.345 1.4806 267.673 29.2124C281.723 50.1482 279.151 69.3249 269.766 90.9624C242.842 111.408 207.736 128.191 196.831 133.19C196.133 132.306 195.053 131.748 193.849 131.748C191.737 131.748 190.025 133.469 190.025 135.593C190.026 137.717 191.737 139.438 193.849 139.438C195.961 139.438 197.672 137.717 197.672 135.593C197.672 135.372 197.652 135.16 197.614 134.949C208.156 130.104 241.245 114.282 267.921 94.7114C264.021 101.844 258.297 109.428 252.944 116.3C228.142 133.151 200.31 146.436 190.819 150.791C190.122 149.916 189.041 149.348 187.837 149.348C185.725 149.348 184.014 151.06 184.014 153.184C184.014 155.308 185.734 157.029 187.837 157.029C189.874 157.029 191.553 155.414 191.655 153.381L191.66 153.203C191.66 152.982 191.641 152.77 191.603 152.559C200.529 148.474 225.581 136.516 249.236 121.079C248.328 122.242 247.448 123.375 246.607 124.471C243.826 127.96 242.058 130.258 239.038 133.468C221.882 151.434 203.569 168.496 182.953 182.174C178.949 184.789 174.543 187.683 172.784 187.981C170.041 188.519 173.883 182.857 174.38 180.675C182.657 153.289 143.356 157.403 138.338 132.488C135.996 122.952 136.522 111.293 142.581 103.276C145.305 100.536 144.312 108.581 144.579 109.947C144.703 115.224 146.481 119.069 149.396 121.693C157.539 128.402 169.295 126.961 179.685 124.539C187.417 122.635 194.27 119.339 201.247 115.619C216.539 107.371 232.548 96.3069 240.892 80.1392C253.632 57.9633 243.721 33.5957 219.492 26.0308C208.214 22.2723 193.792 23.0894 182.188 27.7515C178.423 29.1741 174.944 31.3272 173.615 31.2983C173.453 31.0869 173.663 30.8077 173.854 30.5386C174.323 29.8561 175.393 28.7119 176.75 27.3374C179.225 24.8478 182.141 22.0794 184.53 19.9263ZM185.944 76.5151C191.22 63.9903 209.666 63.3073 218.402 72.9771V72.9585C226.058 81.4366 222.894 91.1253 216.653 98.4692L216.625 98.4985C216.261 98.8545 211.932 103.084 205.242 107.823C196.717 113.898 184.368 120.828 171.551 121.722C171.398 121.732 171.235 121.751 171.092 121.76C166.017 122.058 160.865 121.395 155.866 119.338C155.848 119.338 155.839 119.329 155.838 119.329H155.828C153.563 117.906 151.843 115.82 151.068 112.85C150.858 112.024 150.706 111.12 150.648 110.149C150.744 110.216 150.839 110.303 150.925 110.409L150.036 108.582C150.046 108.591 150.055 108.62 150.084 108.668H150.094C150.333 109.053 151.317 110.495 153.181 112.09C153.209 112.119 153.238 112.139 153.267 112.167C157.768 116.012 167.336 120.809 184.32 115.157C184.349 115.138 184.368 115.138 184.396 115.128C184.398 115.128 184.416 115.128 184.425 115.119C184.444 115.109 184.482 115.108 184.53 115.08C185.037 114.897 185.543 114.696 186.04 114.503C186.069 114.484 186.089 114.474 186.117 114.474C186.671 114.253 187.216 114.032 187.751 113.801C187.827 113.772 187.885 113.754 187.961 113.715C187.99 113.706 188.028 113.686 188.066 113.658C188.076 113.658 188.095 113.638 188.124 113.628C188.172 113.619 188.22 113.6 188.268 113.571C188.287 113.561 188.324 113.533 188.362 113.523C188.381 113.523 188.382 113.513 188.392 113.513C188.439 113.484 188.506 113.455 188.563 113.426C188.64 113.388 188.697 113.359 188.773 113.331C189.031 113.225 189.271 113.1 189.5 112.965C189.768 112.831 190.026 112.687 190.284 112.542C190.533 112.408 190.772 112.254 191.001 112.1C191.335 111.889 191.66 111.658 191.966 111.427C192.912 110.697 193.658 109.879 194.126 108.957C194.202 108.822 194.26 108.688 194.308 108.553C194.317 108.515 194.346 108.495 194.355 108.457C196.075 104.266 189.338 106.429 188.066 105.967C185.037 104.871 181.691 96.5855 181.72 93.5288C181.729 91.3276 184.263 89.8377 184.808 87.4634C185.62 83.8492 184.32 80.3792 185.944 76.5151ZM176.568 118.8H176.865L177.83 118.569L176.568 118.8Z" fill="white"/>
<path d="M184.53 19.9263C208.061 -1.58618 250.345 1.4806 267.673 29.2124C281.723 50.1482 279.151 69.3249 269.766 90.9624C242.842 111.408 207.736 128.191 196.831 133.19C196.133 132.306 195.053 131.748 193.849 131.748C191.737 131.748 190.025 133.469 190.025 135.593C190.026 137.717 191.737 139.438 193.849 139.438C195.961 139.438 197.672 137.717 197.672 135.593C197.672 135.372 197.652 135.16 197.614 134.949C208.156 130.104 241.245 114.282 267.921 94.7114C264.021 101.844 258.297 109.428 252.944 116.3C228.142 133.151 200.31 146.436 190.819 150.791C190.122 149.916 189.041 149.348 187.837 149.348C185.725 149.348 184.014 151.06 184.014 153.184C184.014 155.308 185.734 157.029 187.837 157.029C189.874 157.029 191.553 155.414 191.655 153.381L191.66 153.203C191.66 152.982 191.641 152.77 191.603 152.559C200.529 148.474 225.581 136.516 249.236 121.079C248.328 122.242 247.448 123.375 246.607 124.471C243.826 127.96 242.058 130.258 239.038 133.468C221.882 151.434 203.569 168.496 182.953 182.174C178.949 184.789 174.543 187.683 172.784 187.981C170.041 188.519 173.883 182.857 174.38 180.675C182.657 153.289 143.356 157.403 138.338 132.488C135.996 122.952 136.522 111.293 142.581 103.276C145.305 100.536 144.312 108.581 144.579 109.947C144.703 115.224 146.481 119.069 149.396 121.693C157.539 128.402 169.295 126.961 179.685 124.539C187.417 122.635 194.27 119.339 201.247 115.619C216.539 107.371 232.548 96.3069 240.892 80.1392C253.632 57.9633 243.721 33.5957 219.492 26.0308C208.214 22.2723 193.792 23.0894 182.188 27.7515C178.423 29.1741 174.944 31.3272 173.615 31.2983C173.453 31.0869 173.663 30.8077 173.854 30.5386C174.323 29.8561 175.393 28.7119 176.75 27.3374C179.225 24.8478 182.141 22.0794 184.53 19.9263ZM185.944 76.5151C191.22 63.9903 209.666 63.3073 218.402 72.9771V72.9585C226.058 81.4366 222.894 91.1253 216.653 98.4692L216.625 98.4985C216.261 98.8545 211.932 103.084 205.242 107.823C196.717 113.898 184.368 120.828 171.551 121.722C171.398 121.732 171.235 121.751 171.092 121.76C166.017 122.058 160.865 121.395 155.866 119.338C155.848 119.338 155.839 119.329 155.838 119.329H155.828C153.563 117.906 151.843 115.82 151.068 112.85C150.858 112.024 150.706 111.12 150.648 110.149C150.744 110.216 150.839 110.303 150.925 110.409L150.036 108.582C150.046 108.591 150.055 108.62 150.084 108.668H150.094C150.333 109.053 151.317 110.495 153.181 112.09C153.209 112.119 153.238 112.139 153.267 112.167C157.768 116.012 167.336 120.809 184.32 115.157C184.349 115.138 184.368 115.138 184.396 115.128C184.398 115.128 184.416 115.128 184.425 115.119C184.444 115.109 184.482 115.108 184.53 115.08C185.037 114.897 185.543 114.696 186.04 114.503C186.069 114.484 186.089 114.474 186.117 114.474C186.671 114.253 187.216 114.032 187.751 113.801C187.827 113.772 187.885 113.754 187.961 113.715C187.99 113.706 188.028 113.686 188.066 113.658C188.076 113.658 188.095 113.638 188.124 113.628C188.172 113.619 188.22 113.6 188.268 113.571C188.287 113.561 188.324 113.533 188.362 113.523C188.381 113.523 188.382 113.513 188.392 113.513C188.439 113.484 188.506 113.455 188.563 113.426C188.64 113.388 188.697 113.359 188.773 113.331C189.031 113.225 189.271 113.1 189.5 112.965C189.768 112.831 190.026 112.687 190.284 112.542C190.533 112.408 190.772 112.254 191.001 112.1C191.335 111.889 191.66 111.658 191.966 111.427C192.912 110.697 193.658 109.879 194.126 108.957C194.202 108.822 194.26 108.688 194.308 108.553C194.317 108.515 194.346 108.495 194.355 108.457C196.075 104.266 189.338 106.429 188.066 105.967C185.037 104.871 181.691 96.5855 181.72 93.5288C181.729 91.3276 184.263 89.8377 184.808 87.4634C185.62 83.8492 184.32 80.3792 185.944 76.5151ZM176.568 118.8H176.865L177.83 118.569L176.568 118.8Z" fill="url(#paint1_linear_2843_1334)"/>
</g>
<defs>
<linearGradient id="paint0_linear_2843_1334" x1="122.879" y1="25.6419" x2="122.879" y2="173.121" gradientUnits="userSpaceOnUse">
<stop stop-color="#30D0DB"/>
<stop offset="1" stop-color="#3AB7EB"/>
</linearGradient>
<linearGradient id="paint1_linear_2843_1334" x1="192.483" y1="5.81118" x2="192.483" y2="188.017" gradientUnits="userSpaceOnUse">
<stop stop-color="#3D91FD"/>
<stop offset="1" stop-color="#8977FF"/>
</linearGradient>
<clipPath id="clip0_2843_1334">
<rect width="212" height="188" fill="white" transform="translate(65.5)"/>
</clipPath>
</defs>
</svg>
