<svg width="13" height="13" viewBox="0 0 13 13" fill="none" xmlns="http://www.w3.org/2000/svg">
<g clip-path="url(#clip0_2724_904)">
<path d="M5.64848 0.608207C5.56641 0.505644 5.46493 0.420252 5.34986 0.356906C5.23478 0.29356 5.10835 0.2535 4.97779 0.239014C4.71412 0.209759 4.44962 0.286446 4.24248 0.452207C4.03535 0.617967 3.90255 0.859222 3.87329 1.1229C3.84404 1.38657 3.92072 1.65107 4.08648 1.85821L7.58648 6.23321L4.08648 10.6082C3.92072 10.8153 3.84404 11.0798 3.87329 11.3435C3.90255 11.6072 4.03535 11.8484 4.24248 12.0142C4.44962 12.18 4.71412 12.2567 4.97779 12.2274C5.24147 12.1981 5.48272 12.0653 5.64848 11.8582L9.64848 6.85821C9.79049 6.68084 9.86786 6.46041 9.86786 6.23321C9.86786 6.006 9.79049 5.78557 9.64848 5.60821L5.64848 0.608207Z" fill="#3D91FD"/>
</g>
<defs>
<clipPath id="clip0_2724_904">
<rect width="12" height="12" fill="white" transform="translate(0.867188 0.233154)"/>
</clipPath>
</defs>
</svg>
