<svg width="408" height="50" viewBox="0 0 408 50" fill="none" xmlns="http://www.w3.org/2000/svg">
<g clip-path="url(#clip0_2839_1918)">
<path d="M30.1326 17.425C29.8935 18.8283 28.8892 19.654 28.4512 20.8471C28.275 21.3284 28.3958 22.2479 28.2624 22.4075C28.1793 22.5113 27.467 22.5265 27.1397 22.7038C26.2361 23.1876 25.5791 23.9678 24.6604 24.363C23.6913 24.3959 22.5409 22.6101 21.3227 22.2833C17.2525 21.1891 15.1884 26.7466 14.9493 29.9484C14.7102 33.1299 15.2111 36.0074 16.4772 38.5633C17.2374 40.0983 18.2744 41.5143 19.5909 42.8137C16.0165 40.2326 13.0816 37.7324 10.6727 35.3362C10.6626 35.326 10.6525 35.3159 10.645 35.3083C8.2512 32.7879 5.91782 29.9838 4.07277 27.1797C3.57437 26.3717 3.14143 25.5814 2.75882 24.8164C2.75631 24.8063 2.74876 24.7961 2.74624 24.7885C2.35105 23.9704 2.00368 23.1775 1.69911 22.41C1.68401 22.372 1.66639 22.334 1.6538 22.2935C-3.07085 10.1678 3.37552 4.3316 7.89125 1.86441C9.64317 0.904385 11.1031 0.450968 11.5059 0.336981C11.5184 0.334448 11.531 0.329382 11.5411 0.326849C11.5889 0.314183 11.6141 0.306584 11.6141 0.306584C19.3291 -1.46655 26.6867 4.98007 26.888 5.15991C23.1073 3.26266 19.9458 2.50781 17.3104 2.50781C8.3972 2.50781 5.51508 11.1126 5.20799 13.0656C4.8128 15.5961 5.00159 21.1105 8.50795 26.0677C9.54752 27.5952 10.7281 28.9731 11.9438 30.113C11.594 27.0328 11.8129 24.1755 12.5832 21.1739C13.7738 16.5181 17.2424 10.6642 22.4554 10.0158C26.6388 9.4965 30.8903 13.0048 30.1351 17.4199L30.1326 17.425Z" fill="url(#paint0_linear_2839_1918)"/>
<path d="M31.3486 5.25139C37.5458 -0.417526 48.6816 0.389846 53.2451 7.69768C56.9453 13.2146 56.2677 18.2683 53.7959 23.9701C46.7052 29.3579 37.46 33.7808 34.5879 35.0981C34.4042 34.8651 34.1198 34.7183 33.8027 34.7182C33.2466 34.7182 32.7961 35.1712 32.7959 35.7309C32.7959 36.2907 33.2464 36.7446 33.8027 36.7446C34.3589 36.7444 34.8096 36.2906 34.8096 35.7309C34.8095 35.6729 34.8039 35.6174 34.7939 35.5619C37.5703 34.2853 46.2852 30.1157 53.3105 24.9584C52.2836 26.8379 50.7758 28.8367 49.3662 30.6479C42.8346 35.0881 35.5048 38.5881 33.0049 39.7358C32.8211 39.5053 32.5359 39.3559 32.2188 39.3559C31.6627 39.3561 31.212 39.807 31.2119 40.3666C31.2119 40.9263 31.6651 41.3801 32.2188 41.3803C32.738 41.3803 33.169 40.9813 33.2207 40.4701L33.2256 40.3715C33.2256 40.3135 33.2209 40.258 33.2109 40.2026C35.5619 39.126 42.1589 35.9746 48.3887 31.9067C48.1498 32.2129 47.9186 32.5117 47.6973 32.8002C46.9648 33.7197 46.4985 34.3253 45.7031 35.1713C41.1849 39.9056 36.362 44.4018 30.9326 48.0063C29.8781 48.6951 28.7182 49.4578 28.2549 49.5365C27.5327 49.6784 28.5434 48.1871 28.6748 47.6117C30.8546 40.3952 20.5044 41.4788 19.1826 34.9135C18.5659 32.4007 18.7049 29.3278 20.3008 27.2153C21.018 26.4936 20.7557 28.6132 20.8262 28.9731C20.8589 30.3637 21.328 31.3772 22.0957 32.0688C24.2403 33.8364 27.3363 33.4561 30.0723 32.8178C32.1085 32.3162 33.9136 31.4474 35.751 30.4672C39.7783 28.2939 43.994 25.3781 46.1914 21.1176C49.5465 15.2739 46.9365 8.85327 40.5557 6.85979C37.5855 5.86939 33.7872 6.08439 30.7314 7.31291C29.7397 7.6878 28.8235 8.25508 28.4736 8.24748C28.431 8.19178 28.4858 8.11816 28.5361 8.04729C28.6595 7.86744 28.9414 7.56576 29.2988 7.20354C29.9508 6.54748 30.7194 5.81879 31.3486 5.25139ZM31.7207 20.1635C33.1101 16.863 37.9678 16.6828 40.2686 19.2309V19.226C42.2847 21.4601 41.4522 24.0134 39.8086 25.9487L39.8008 25.9565C39.7044 26.0509 38.564 27.1652 36.8027 28.4135C34.5575 30.0144 31.3051 31.84 27.9297 32.0756C27.8896 32.0781 27.8472 32.0838 27.8096 32.0863C26.473 32.1649 25.1153 31.9898 23.7988 31.4477C23.7952 31.4476 23.7928 31.4464 23.792 31.4457H23.7891C23.1925 31.0708 22.74 30.5204 22.5361 29.7377C22.4808 29.5199 22.4399 29.2816 22.4248 29.0258C22.4499 29.0435 22.4754 29.0664 22.498 29.0942L22.2637 28.6137C22.2662 28.6163 22.2689 28.6236 22.2764 28.6362H22.2793C22.3424 28.7377 22.6014 29.1174 23.0918 29.5375C23.0993 29.545 23.1068 29.5506 23.1143 29.558C24.2998 30.5713 26.82 31.8356 31.293 30.3461C31.3004 30.3412 31.3052 30.3407 31.3125 30.3383C31.3125 30.3383 31.3178 30.3379 31.3203 30.3354C31.3254 30.3329 31.3361 30.3332 31.3486 30.3256C31.4819 30.2775 31.6153 30.2239 31.7461 30.1733C31.7533 30.1684 31.7584 30.1665 31.7656 30.1664C31.9116 30.1082 32.0554 30.0495 32.1963 29.9887C32.2164 29.9811 32.2318 29.9764 32.252 29.9662C32.2595 29.9637 32.2693 29.9582 32.2793 29.9506C32.2818 29.9506 32.2874 29.9453 32.2949 29.9428C32.3073 29.9403 32.3197 29.9356 32.332 29.9281C32.337 29.9256 32.3474 29.918 32.3574 29.9155C32.3625 29.9155 32.3627 29.9125 32.3652 29.9125C32.3777 29.905 32.3952 29.8976 32.4102 29.8901C32.4303 29.8799 32.4457 29.8723 32.4658 29.8647C32.5338 29.8368 32.5968 29.8034 32.6572 29.768C32.7276 29.7326 32.7954 29.6946 32.8633 29.6567C32.9287 29.6212 32.9923 29.581 33.0527 29.5405C33.1407 29.4848 33.2262 29.4234 33.3066 29.3627C33.5556 29.1703 33.7517 28.9553 33.875 28.7123C33.8951 28.6769 33.9103 28.6413 33.9229 28.6059C33.9254 28.5958 33.933 28.5905 33.9355 28.5805C34.3886 27.4761 32.6141 28.0458 32.2793 27.9242C31.4815 27.6352 30.6011 25.4526 30.6084 24.6469C30.6109 24.0669 31.2774 23.6739 31.4209 23.0483C31.6348 22.096 31.293 21.1816 31.7207 20.1635ZM29.251 31.3061H29.3291L29.584 31.2455L29.251 31.3061Z" fill="white"/>
</g>
<path d="M407.699 12.4095V38.9071H406V12.4095H407.699Z" fill="white"/>
<path d="M397.358 32.1128H384.789L382.26 38.9071H380.41L390.149 13.0134H392.036L401.737 38.9071H399.887L397.358 32.1128ZM396.83 30.6785L391.092 15.2404L385.317 30.6785H396.83Z" fill="white"/>
<path d="M364.454 17.6562C366.014 17.6562 367.386 17.9707 368.568 18.5998C369.751 19.2037 370.682 19.9964 371.361 20.9778V17.9959H376.684V39.0581C376.684 40.9957 376.294 42.7194 375.514 44.2292C374.733 45.7642 373.563 46.9721 372.003 47.8528C370.443 48.7587 368.556 49.2117 366.341 49.2117C363.372 49.2117 360.931 48.5197 359.019 47.1357C357.131 45.7517 356.062 43.8644 355.81 41.4738H361.057C361.334 42.43 361.925 43.1849 362.831 43.7385C363.762 44.3173 364.882 44.6067 366.19 44.6067C367.725 44.6067 368.971 44.1412 369.927 43.2101C370.883 42.3042 371.361 40.9202 371.361 39.0581V35.8119C370.682 36.7933 369.738 37.6111 368.531 38.2654C367.348 38.9197 365.989 39.2468 364.454 39.2468C362.693 39.2468 361.082 38.7938 359.623 37.8879C358.163 36.982 357.005 35.7113 356.15 34.0756C355.319 32.4148 354.904 30.5149 354.904 28.376C354.904 26.2622 355.319 24.3875 356.15 22.7518C357.005 21.1162 358.15 19.858 359.585 18.9773C361.044 18.0965 362.667 17.6562 364.454 17.6562ZM371.361 28.4515C371.361 27.1681 371.11 26.0735 370.607 25.1676C370.103 24.2365 369.424 23.5319 368.568 23.0538C367.713 22.5505 366.794 22.2989 365.813 22.2989C364.831 22.2989 363.926 22.538 363.095 23.0161C362.265 23.4942 361.585 24.1988 361.057 25.1298C360.554 26.0357 360.302 27.1178 360.302 28.376C360.302 29.6342 360.554 30.7414 361.057 31.6976C361.585 32.6287 362.265 33.3459 363.095 33.8491C363.951 34.3524 364.857 34.604 365.813 34.604C366.794 34.604 367.713 34.365 368.568 33.8869C369.424 33.3836 370.103 32.679 370.607 31.7731C371.11 30.842 371.361 29.7348 371.361 28.4515Z" fill="white"/>
<path d="M342.896 17.6939C345.387 17.6939 347.4 18.4866 348.935 20.0719C350.47 21.632 351.238 23.8213 351.238 26.6397V38.9071H345.954V27.3568C345.954 25.696 345.538 24.4252 344.708 23.5445C343.877 22.6386 342.745 22.1856 341.311 22.1856C339.851 22.1856 338.694 22.6386 337.838 23.5445C337.008 24.4252 336.593 25.696 336.593 27.3568V38.9071H331.308V17.9959H336.593V20.6003C337.297 19.6944 338.19 18.9898 339.272 18.4866C340.38 17.9581 341.588 17.6939 342.896 17.6939Z" fill="white"/>
<path d="M323.482 15.5046C322.551 15.5046 321.771 15.2152 321.142 14.6365C320.538 14.0325 320.236 13.2902 320.236 12.4095C320.236 11.5287 320.538 10.799 321.142 10.2202C321.771 9.61627 322.551 9.3143 323.482 9.3143C324.414 9.3143 325.181 9.61627 325.785 10.2202C326.414 10.799 326.729 11.5287 326.729 12.4095C326.729 13.2902 326.414 14.0325 325.785 14.6365C325.181 15.2152 324.414 15.5046 323.482 15.5046ZM326.087 17.9959V38.9071H320.803V17.9959H326.087Z" fill="white"/>
<path d="M312.321 22.3366V32.4525C312.321 33.1571 312.485 33.673 312.812 34.0001C313.164 34.3021 313.743 34.4531 314.548 34.4531H317.002V38.9071H313.68C309.226 38.9071 306.999 36.743 306.999 32.4148V22.3366H304.508V17.9959H306.999V12.8247H312.321V17.9959H317.002V22.3366H312.321Z" fill="white"/>
<path d="M292.801 17.6939C295.293 17.6939 297.306 18.4866 298.841 20.0719C300.376 21.632 301.143 23.8213 301.143 26.6397V38.9071H295.859V27.3568C295.859 25.696 295.444 24.4252 294.613 23.5445C293.783 22.6386 292.65 22.1856 291.216 22.1856C289.757 22.1856 288.599 22.6386 287.743 23.5445C286.913 24.4252 286.498 25.696 286.498 27.3568V38.9071H281.213V17.9959H286.498V20.6003C287.202 19.6944 288.096 18.9898 289.178 18.4866C290.285 17.9581 291.493 17.6939 292.801 17.6939Z" fill="white"/>
<path d="M277.357 27.9985C277.357 28.7534 277.306 29.4329 277.206 30.0368H261.919C262.044 31.5466 262.573 32.7293 263.504 33.5849C264.435 34.4405 265.58 34.8683 266.939 34.8683C268.901 34.8683 270.298 34.0253 271.129 32.3393H276.828C276.224 34.3524 275.067 36.0132 273.356 37.3217C271.644 38.6051 269.543 39.2468 267.052 39.2468C265.039 39.2468 263.227 38.8064 261.617 37.9257C260.031 37.0198 258.786 35.749 257.88 34.1133C256.999 32.4777 256.559 30.5904 256.559 28.4515C256.559 26.2874 256.999 24.3875 257.88 22.7518C258.76 21.1162 259.993 19.858 261.579 18.9773C263.164 18.0965 264.989 17.6562 267.052 17.6562C269.04 17.6562 270.814 18.0839 272.374 18.9395C273.959 19.7951 275.18 21.0155 276.035 22.6009C276.916 24.161 277.357 25.9602 277.357 27.9985ZM271.883 26.4887C271.858 25.1298 271.368 24.0478 270.411 23.2425C269.455 22.4121 268.285 21.9969 266.901 21.9969C265.592 21.9969 264.485 22.3995 263.579 23.2048C262.699 23.9849 262.158 25.0795 261.956 26.4887H271.883Z" fill="white"/>
<path d="M247.941 21.242C248.621 20.1348 249.501 19.2666 250.583 18.6375C251.691 18.0084 252.949 17.6939 254.358 17.6939V23.2425H252.961C251.301 23.2425 250.042 23.6326 249.187 24.4127C248.356 25.1927 247.941 26.5516 247.941 28.4892V38.9071H242.657V17.9959H247.941V21.242Z" fill="white"/>
<path d="M215.716 28.376C215.716 26.2622 216.131 24.3875 216.961 22.7518C217.817 21.1162 218.962 19.858 220.396 18.9773C221.856 18.0965 223.479 17.6562 225.266 17.6562C226.826 17.6562 228.185 17.9707 229.342 18.5998C230.525 19.2289 231.468 20.0216 232.173 20.9778V17.9959H237.495V38.9071H232.173V35.8497C231.494 36.8311 230.55 37.6489 229.342 38.3031C228.159 38.9322 226.788 39.2468 225.228 39.2468C223.466 39.2468 221.856 38.7938 220.396 37.8879C218.962 36.982 217.817 35.7113 216.961 34.0756C216.131 32.4148 215.716 30.5149 215.716 28.376ZM232.173 28.4515C232.173 27.1681 231.921 26.0735 231.418 25.1676C230.915 24.2365 230.235 23.5319 229.38 23.0538C228.524 22.5505 227.606 22.2989 226.624 22.2989C225.643 22.2989 224.737 22.538 223.907 23.0161C223.076 23.4942 222.397 24.1988 221.868 25.1298C221.365 26.0357 221.113 27.1178 221.113 28.376C221.113 29.6342 221.365 30.7414 221.868 31.6976C222.397 32.6287 223.076 33.3459 223.907 33.8491C224.762 34.3524 225.668 34.604 226.624 34.604C227.606 34.604 228.524 34.365 229.38 33.8869C230.235 33.3836 230.915 32.679 231.418 31.7731C231.921 30.842 232.173 29.7348 232.173 28.4515Z" fill="white"/>
<path d="M213.323 20.7136C213.323 22.1227 212.984 23.4439 212.304 24.6769C211.65 25.9099 210.606 26.9039 209.171 27.6588C207.762 28.4137 205.976 28.7912 203.812 28.7912H199.395V38.9071H194.111V12.5605H203.812C205.85 12.5605 207.586 12.9128 209.02 13.6173C210.455 14.3219 211.524 15.2907 212.229 16.5238C212.959 17.7568 213.323 19.1534 213.323 20.7136ZM203.585 24.5259C205.045 24.5259 206.127 24.1988 206.831 23.5445C207.536 22.8651 207.888 21.9214 207.888 20.7136C207.888 18.1469 206.454 16.8635 203.585 16.8635H199.395V24.5259H203.585Z" fill="white"/>
<path d="M182.671 39.209C180.381 39.209 178.506 38.7058 177.047 37.6992C175.612 36.6927 174.807 35.2583 174.631 33.3962H176.367C176.493 34.7299 177.097 35.7868 178.179 36.5668C179.286 37.3469 180.783 37.737 182.671 37.737C184.231 37.737 185.464 37.3469 186.37 36.5668C187.301 35.7616 187.766 34.7802 187.766 33.6227C187.766 32.8174 187.515 32.1632 187.012 31.6599C186.533 31.1314 185.929 30.7288 185.2 30.452C184.47 30.1752 183.476 29.8732 182.218 29.5461C180.708 29.1435 179.487 28.7534 178.556 28.376C177.625 27.9734 176.833 27.382 176.178 26.6019C175.524 25.8218 175.197 24.7775 175.197 23.469C175.197 22.5128 175.486 21.6321 176.065 20.8268C176.644 19.9964 177.449 19.3421 178.481 18.864C179.513 18.3859 180.683 18.1469 181.991 18.1469C184.13 18.1469 185.854 18.6879 187.162 19.7699C188.496 20.8268 189.213 22.2989 189.314 24.1862H187.615C187.54 22.8273 187.012 21.7201 186.03 20.8646C185.049 20.009 183.69 19.5812 181.954 19.5812C180.494 19.5812 179.286 19.9587 178.33 20.7136C177.374 21.4685 176.896 22.387 176.896 23.469C176.896 24.4252 177.16 25.2053 177.688 25.8093C178.242 26.388 178.909 26.841 179.689 27.1681C180.494 27.4701 181.551 27.7972 182.859 28.1495C184.294 28.527 185.439 28.9044 186.294 29.2819C187.175 29.6342 187.917 30.1626 188.521 30.8672C189.125 31.5466 189.427 32.4651 189.427 33.6227C189.427 34.6795 189.138 35.6358 188.559 36.4913C187.98 37.3469 187.175 38.0138 186.143 38.4919C185.112 38.97 183.954 39.209 182.671 39.209Z" fill="white"/>
<path d="M169.647 18.4111V38.9071H167.948V34.4531C167.37 36.0132 166.401 37.2085 165.042 38.0389C163.708 38.8442 162.173 39.2468 160.437 39.2468C157.996 39.2468 155.995 38.5045 154.435 37.0198C152.9 35.51 152.133 33.2829 152.133 30.3388V18.4111H153.794V30.2255C153.794 32.6664 154.41 34.5411 155.643 35.8497C156.876 37.133 158.55 37.7747 160.663 37.7747C162.878 37.7747 164.639 37.0701 165.948 35.6609C167.281 34.2518 167.948 32.1632 167.948 29.3951V18.4111H169.647Z" fill="white"/>
<path d="M145.264 13.8438C144.862 13.8438 144.522 13.718 144.245 13.4664C143.968 13.1895 143.83 12.8247 143.83 12.3717C143.83 11.9439 143.968 11.5916 144.245 11.3148C144.522 11.038 144.862 10.8996 145.264 10.8996C145.667 10.8996 146.007 11.038 146.284 11.3148C146.56 11.5916 146.699 11.9439 146.699 12.3717C146.699 12.8247 146.56 13.1895 146.284 13.4664C146.007 13.718 145.667 13.8438 145.264 13.8438ZM146.095 18.4111V38.9071H144.396V18.4111H146.095Z" fill="white"/>
<path d="M130.127 17.9959C132.568 17.9959 134.556 18.7508 136.091 20.2606C137.626 21.7453 138.393 23.9597 138.393 26.9039V38.9071H136.733V27.0171C136.733 24.5762 136.116 22.7141 134.883 21.4307C133.65 20.1222 131.977 19.4679 129.863 19.4679C127.648 19.4679 125.874 20.1725 124.541 21.5817C123.232 22.9909 122.578 25.0795 122.578 27.8475V38.9071H120.879V18.4111H122.578V22.7518C123.157 21.2168 124.113 20.0467 125.447 19.2415C126.806 18.4111 128.366 17.9959 130.127 17.9959Z" fill="white"/>
<path d="M115.746 27.2814C115.746 28.1873 115.72 28.8667 115.67 29.3196H97.9673C98.0176 31.1566 98.4202 32.7042 99.1751 33.9624C99.9301 35.2206 100.924 36.1642 102.157 36.7933C103.39 37.4224 104.736 37.737 106.196 37.737C108.209 37.737 109.895 37.2463 111.254 36.2649C112.613 35.2583 113.468 33.8995 113.821 32.1883H115.595C115.192 34.2769 114.16 35.9755 112.499 37.284C110.839 38.5674 108.737 39.209 106.196 39.209C104.283 39.209 102.572 38.7813 101.062 37.9257C99.5526 37.0701 98.3699 35.8497 97.5143 34.2643C96.6587 32.6538 96.231 30.7791 96.231 28.6402C96.231 26.5013 96.6462 24.6391 97.4766 23.0538C98.3321 21.4685 99.5148 20.2606 101.025 19.4302C102.535 18.5746 104.258 18.1469 106.196 18.1469C108.159 18.1469 109.857 18.5746 111.292 19.4302C112.751 20.2606 113.858 21.3804 114.613 22.7896C115.368 24.1736 115.746 25.6709 115.746 27.2814ZM114.047 27.923C114.123 26.1112 113.795 24.5762 113.066 23.318C112.361 22.0598 111.392 21.1288 110.159 20.5248C108.926 19.8957 107.592 19.5812 106.158 19.5812C104.724 19.5812 103.39 19.8957 102.157 20.5248C100.949 21.1288 99.9552 22.0598 99.1751 23.318C98.4202 24.5762 98.0176 26.1112 97.9673 27.923H114.047Z" fill="white"/>
<path d="M89.3568 20.2229C88.6018 18.2349 87.3437 16.6496 85.5822 15.4669C83.8459 14.2842 81.7824 13.6928 79.3919 13.6928C77.3032 13.6928 75.416 14.1835 73.73 15.1649C72.044 16.1463 70.7103 17.5429 69.7289 19.3547C68.7475 21.1665 68.2568 23.2803 68.2568 25.696C68.2568 28.1118 68.7475 30.2255 69.7289 32.0373C70.7103 33.8491 72.044 35.2457 73.73 36.2271C75.416 37.1833 77.3032 37.6615 79.3919 37.6615C81.405 37.6615 83.2294 37.2085 84.865 36.3026C86.5007 35.3967 87.8092 34.1134 88.7906 32.4525C89.772 30.7666 90.313 28.8038 90.4137 26.5642H78.5992V25.1298H92.15V26.2622C92.0745 28.7283 91.4831 30.9427 90.3759 32.9055C89.2687 34.8683 87.7589 36.4033 85.8464 37.5105C83.9339 38.6177 81.7824 39.1713 79.3919 39.1713C76.951 39.1713 74.7491 38.6051 72.7863 37.4727C70.8235 36.3152 69.2885 34.7173 68.1813 32.679C67.0741 30.6156 66.5205 28.2879 66.5205 25.696C66.5205 23.079 67.0741 20.7513 68.1813 18.713C69.2885 16.6496 70.8235 15.0517 72.7863 13.9193C74.7491 12.7618 76.951 12.183 79.3919 12.183C82.2354 12.183 84.6889 12.9002 86.7523 14.3345C88.8409 15.7437 90.3633 17.7065 91.3196 20.2229H89.3568Z" fill="white"/>
<defs>
<linearGradient id="paint0_linear_2839_1918" x1="15.1114" y1="6.75722" x2="15.1114" y2="45.6207" gradientUnits="userSpaceOnUse">
<stop stop-color="#30D0DB"/>
<stop offset="1" stop-color="#3AB7EB"/>
</linearGradient>
<clipPath id="clip0_2839_1918">
<rect width="55.8324" height="49.5415" fill="white"/>
</clipPath>
</defs>
</svg>
