<svg width="92" height="71" viewBox="0 0 92 71" fill="none" xmlns="http://www.w3.org/2000/svg">
<path d="M89.1556 67.3477L47.941 1.40531C47.1863 0.199859 45.2 0.199859 44.4454 1.40531L3.23073 67.3477C2.83428 67.9837 2.81314 68.7846 3.17638 69.4387C3.53965 70.0947 4.2289 70.5012 4.97854 70.5012H87.4079C88.1575 70.5012 88.8467 70.0947 89.21 69.4387C89.5732 68.7846 89.5521 67.9837 89.1556 67.3477Z" fill="white"/>
<path d="M80.5308 45.7723H89.4689C90.2235 45.7723 90.9178 45.3598 91.279 44.6957C91.6403 44.0336 91.6091 43.2266 91.1985 42.5927L68.5305 7.55922C68.1511 6.97261 67.5001 6.61841 66.8008 6.61841C66.1015 6.61841 65.4505 6.97261 65.0711 7.55922L60.7861 14.1809L80.5308 45.7723Z" fill="#30D0DB"/>
<path d="M2.91828 45.7725H11.8561L31.6008 14.1816L27.316 7.55939C26.5574 6.38613 24.6153 6.38613 23.8567 7.55939L1.1886 42.5929C0.778063 43.2268 0.746864 44.0338 1.10811 44.6959C1.46934 45.3599 2.16362 45.7725 2.91828 45.7725Z" fill="#30D0DB"/>
</svg>
