<svg width="88" height="87" viewBox="0 0 88 87" fill="none" xmlns="http://www.w3.org/2000/svg">
<g clip-path="url(#clip0_1744_1344)">
<path d="M50.3643 82.6599H37.6478C36.4431 82.6599 35.4727 83.6281 35.4727 84.8299C35.4727 86.0318 36.4431 86.9999 37.6478 86.9999H50.3643C51.569 86.9999 52.5395 86.0318 52.5395 84.8299C52.5395 83.6281 51.569 82.6599 50.3643 82.6599Z" fill="white"/>
<path d="M43.994 14.8337C30.0951 14.8337 18.7842 26.1177 18.7842 39.9834C18.7842 45.5809 20.5913 50.8779 24.0158 55.3069C24.8301 56.5199 25.7671 57.5993 26.7598 58.7455C29.727 62.173 32.8057 65.7228 32.8057 73.4013C32.8057 74.4028 33.62 75.204 34.6128 75.204H53.3974C54.4014 75.204 55.2045 74.3917 55.2045 73.4013C55.2045 65.734 58.2721 62.1841 61.2504 58.7455C62.2432 57.5993 63.169 56.5199 63.9945 55.3069C67.419 50.8779 69.2261 45.5809 69.2261 39.9834C69.2261 26.1177 57.9151 14.8337 44.0163 14.8337H43.994Z" fill="white"/>
<path d="M43.9945 9.25863C45.1992 9.25863 46.1697 8.29048 46.1697 7.08864V2.16999C46.1697 0.96815 45.1992 0 43.9945 0C42.7898 0 41.8193 0.96815 41.8193 2.16999V7.08864C41.8193 8.29048 42.7898 9.25863 43.9945 9.25863Z" fill="#30D0DB"/>
<path d="M16.3753 19.4075C16.7992 19.8304 17.3569 20.0419 17.9147 20.0419C18.4724 20.0419 19.0301 19.8304 19.454 19.4075C20.3018 18.5618 20.3018 17.1819 19.454 16.3362L15.9626 12.8531C15.1148 12.0073 13.7316 12.0073 12.8839 12.8531C12.0361 13.6988 12.0361 15.0787 12.8839 15.9244L16.3753 19.4075Z" fill="#30D0DB"/>
<path d="M7.10559 41.7195H2.17518C0.970465 41.7195 0 42.6876 0 43.8895C0 45.0913 0.970465 46.0595 2.17518 46.0595H7.10559C8.3103 46.0595 9.28077 45.0913 9.28077 43.8895C9.28077 42.6876 8.3103 41.7195 7.10559 41.7195Z" fill="#30D0DB"/>
<path d="M16.3753 68.3826L12.8839 71.8657C12.0361 72.7115 12.0361 74.0913 12.8839 74.9371C13.3078 75.36 13.8655 75.5714 14.4232 75.5714C14.981 75.5714 15.5387 75.36 15.9626 74.9371L19.454 71.454C20.3018 70.6082 20.3018 69.2283 19.454 68.3826C18.6063 67.5369 17.2231 67.5369 16.3753 68.3826Z" fill="#30D0DB"/>
<path d="M71.6247 68.3826C70.7769 67.5369 69.3937 67.5369 68.546 68.3826C67.6982 69.2283 67.6982 70.6082 68.546 71.454L72.0374 74.9371C72.4613 75.36 73.019 75.5714 73.5768 75.5714C74.1345 75.5714 74.6923 75.36 75.1161 74.9371C75.9639 74.0913 75.9639 72.7115 75.1161 71.8657L71.6247 68.3826Z" fill="#30D0DB"/>
<path d="M85.8243 41.7195H80.8939C79.6892 41.7195 78.7188 42.6876 78.7188 43.8895C78.7188 45.0913 79.6892 46.0595 80.8939 46.0595H85.8243C87.0291 46.0595 87.9995 45.0913 87.9995 43.8895C87.9995 42.6876 87.0291 41.7195 85.8243 41.7195Z" fill="#30D0DB"/>
<path d="M72.0374 12.8531L68.546 16.3362C67.6982 17.1819 67.6982 18.5618 68.546 19.4075C68.9699 19.8304 69.5276 20.0419 70.0853 20.0419C70.6431 20.0419 71.2008 19.8304 71.6247 19.4075L75.1161 15.9244C75.9639 15.0787 75.9639 13.6988 75.1161 12.8531C74.2684 12.0073 72.8852 12.0073 72.0374 12.8531Z" fill="#30D0DB"/>
</g>
<defs>
<clipPath id="clip0_1744_1344">
<rect width="88" height="87" fill="white"/>
</clipPath>
</defs>
</svg>
