<svg width="85" height="84" viewBox="0 0 85 84" fill="none" xmlns="http://www.w3.org/2000/svg">
<g clip-path="url(#clip0_1744_1338)">
<path d="M42.8773 24.3474C49.6012 24.3474 55.05 18.8971 55.05 12.1715C55.05 5.44583 49.5967 0 42.8773 0C36.1578 0 30.709 5.45025 30.709 12.1715C30.709 18.8927 36.1578 24.3474 42.8773 24.3474Z" fill="white"/>
<path d="M35.5441 66.6254L21.4081 62.8345L13.14 64.154C12.0899 64.9395 11.2693 65.9546 10.8502 67.177C9.59716 70.8443 12.4032 74.5955 16.9167 75.5091L18.5359 75.8533C19.1932 72.9097 21.4963 70.3986 24.8185 69.4851L35.5485 66.6254H35.5441Z" fill="#30D0DB"/>
<path d="M63.7456 77.8083L55.5922 78.8013L54.7319 77.7289L68.815 75.0369C73.3284 74.1278 76.1433 70.381 74.8991 66.7181C74.5947 65.8178 74.0608 65.0367 73.3946 64.3659L63.022 62.7109L25.8465 72.6141C22.842 73.4437 21.3904 76.8021 22.3919 79.6486C23.9053 83.9382 27.1657 83.8146 29.0496 83.4175L41.6415 80.774L56.2275 83.8764C59.7086 84.5649 63.9 82.1597 63.7412 77.8039L63.7456 77.8083Z" fill="#30D0DB"/>
<path d="M55.363 60.5883L41.9196 64.5734L30.2014 61.0782C31.4412 54.9218 31.4985 50.7602 30.6205 47.4151C30.6205 47.4151 28.7807 52.0753 27.0644 55.2925C26.3232 56.59 25.7276 57.9184 23.5834 58.3994L5.41919 60.9061C2.60875 61.4224 1.40428 59.3085 1.00279 57.4329C0.464521 54.9042 1.30721 52.7726 4.2809 52.1239L18.6375 48.1609C18.6375 48.1609 23.8128 36.8544 26.91 32.15C30.0293 27.4102 36.8458 26.6997 42.8065 26.6997C48.7671 26.6997 55.4115 27.0748 58.8264 32.15C61.2221 35.7114 67.0768 48.1609 67.0768 48.1609L81.482 52.0489C84.4557 52.6976 85.2234 54.8292 84.6851 57.3579C84.288 59.2335 82.9291 61.4224 80.1187 60.9061L62.1531 58.3994C60.0088 57.9184 59.4132 56.59 58.672 55.2925C56.9557 52.0753 55.1159 47.4151 55.1159 47.4151C54.3438 50.6058 54.3438 56.5106 55.3542 60.5927L55.363 60.5883Z" fill="white"/>
</g>
<defs>
<clipPath id="clip0_1744_1338">
<rect width="84" height="84" fill="white" transform="translate(0.857422)"/>
</clipPath>
</defs>
</svg>
