<svg width="77" height="76" viewBox="0 0 77 76" fill="none" xmlns="http://www.w3.org/2000/svg">
<g clip-path="url(#clip0_1744_1333)">
<path d="M36.0107 12.1125C36.0107 6.65 31.7357 2.375 26.2732 2.375C21.9982 2.375 18.4357 5.225 17.2482 9.025C17.0107 9.025 16.7732 9.025 16.7732 9.025C7.74824 8.7875 0.385742 16.15 0.385742 24.9375C0.385742 29.2125 2.04824 33.25 4.89824 36.1C2.28574 38 0.385742 41.0875 0.385742 44.4125C0.385742 47.7375 2.04824 50.5875 4.42324 52.25C3.94824 53.9125 3.47324 55.575 3.47324 57.2375C3.47324 66.2625 10.8357 73.3875 19.6232 73.3875C28.4107 73.3875 35.7732 66.025 35.7732 57.2375V33.25" fill="white"/>
<path d="M40.7607 12.1125C40.7607 6.65 45.0357 2.375 50.4982 2.375C54.7732 2.375 58.3357 5.225 59.5232 9.025C59.7607 9.025 59.9982 9.025 59.9982 9.025C69.0232 9.025 76.1482 16.3875 76.1482 25.175C76.1482 29.45 74.4857 33.4875 71.6357 36.3375C74.2482 38 76.1482 41.0875 76.1482 44.65C76.1482 47.975 74.4857 50.825 72.1107 52.4875C72.5857 54.15 73.0607 55.8125 73.0607 57.475C73.0607 66.5 65.6982 73.625 56.9107 73.625C48.1232 73.625 40.7607 66.2625 40.7607 57.475" fill="#30D0DB"/>
</g>
<defs>
<clipPath id="clip0_1744_1333">
<rect width="76" height="76" fill="white" transform="translate(0.385742)"/>
</clipPath>
</defs>
</svg>
