<svg width="65" height="65" viewBox="0 0 65 65" fill="none" xmlns="http://www.w3.org/2000/svg">
<path d="M61.9294 15.9293L54.9294 8.92926C54.7419 8.74179 54.4876 8.63647 54.2224 8.63647C53.9573 8.63647 53.703 8.74179 53.5154 8.92926L23.2224 39.2223L10.9294 26.9293C10.7419 26.7418 10.4876 26.6365 10.2224 26.6365C9.95728 26.6365 9.70297 26.7418 9.51544 26.9293L2.51544 33.9293C2.32797 34.1168 2.22266 34.3711 2.22266 34.6363C2.22266 34.9014 2.32797 35.1557 2.51544 35.3433L22.5154 55.3433C22.703 55.5307 22.9573 55.636 23.2224 55.636C23.4876 55.636 23.7419 55.5307 23.9294 55.3433L61.9294 17.3433C62.1169 17.1557 62.2222 16.9014 62.2222 16.6363C62.2222 16.3711 62.1169 16.1168 61.9294 15.9293Z" fill="url(#paint0_linear_1732_662)"/>
<defs>
<linearGradient id="paint0_linear_1732_662" x1="28.722" y1="8.63649" x2="28.722" y2="55.636" gradientUnits="userSpaceOnUse">
<stop stop-color="#30D0DB"/>
<stop offset="1" stop-color="#3AB7EB"/>
</linearGradient>
</defs>
</svg>
