<svg width="64" height="80" viewBox="0 0 64 80" fill="none" xmlns="http://www.w3.org/2000/svg">
<path d="M40.2548 16.7442C36.5634 16.7442 33.3477 18.8443 31.6247 21.9542C29.5233 18.1679 25.2171 15.8764 20.5296 17.0561C16.1081 18.1679 13.1052 22.1735 13.0254 26.9265C12.8422 37.8407 25.2673 47.606 30.6759 51.763C31.2493 52.2046 32.0089 52.2015 32.5823 51.763C37.9466 47.6369 50.2327 37.9858 50.2327 27.1674C50.2268 21.4076 45.761 16.7442 40.2548 16.7442Z" fill="#8977FF"/>
<path d="M23.6551 57.0288L13.9573 47.3973C13.5193 46.9661 12.9477 46.7382 12.3391 46.7598C11.739 46.7906 11.193 47.0739 10.7949 47.5636C10.1208 48.383 10.0412 49.5873 10.5986 50.5082L10.8972 50.9979C12.4671 53.576 14.2474 56 16.204 58.2485L18.0241 60.3399C18.3028 60.654 18.4422 61.0606 18.4308 61.4918C18.4166 61.923 18.2545 62.3173 17.9644 62.6191C17.6743 62.9087 17.296 63.0719 16.8979 63.0565C16.4998 63.0411 16.13 62.8655 15.8599 62.5513L14.1393 60.5801C11.9836 58.1098 10.0327 55.4363 8.30642 52.6027L8.11873 52.2977C6.83612 50.1848 6.97261 47.3881 8.50833 45.4969C8.65052 45.3214 8.79842 45.1612 8.9463 45.0072L4.92215 36.8419C4.45575 35.8994 3.49735 35.308 2.51904 35.3511C1.77962 35.3819 1.09708 35.73 0.619301 36.3521C0.138677 36.9651 -0.0774718 37.7474 0.0249094 38.5513L2.70106 60.6017C2.95132 62.653 3.92393 64.5226 5.40562 65.8316L13.1638 72.6386C13.6359 73.0544 13.9459 73.6551 14.0255 74.3111L14.6057 79.19C14.6597 79.6581 15.0238 80 15.4617 80H27.0479C27.5683 80 27.9722 79.5041 27.8982 78.9436L25.68 61.0544C25.4354 59.5144 24.7159 58.0822 23.6551 57.0288Z" fill="#3D91FD"/>
<path d="M62.5971 36.352C62.0784 35.733 61.3594 35.3819 60.5676 35.3511C59.524 35.308 58.5017 35.9086 58.0072 36.8418L53.7114 45.0065C53.8691 45.1543 54.0269 45.3206 54.1786 45.4962C55.8259 47.3872 55.9715 50.1868 54.5973 52.2965L54.394 52.6045C52.5525 55.4442 50.4744 58.1113 48.1719 60.5783L46.3365 62.5494C46.0513 62.8636 45.6539 63.0484 45.2292 63.0546C44.8044 63.07 44.404 62.9098 44.0945 62.6172C43.7851 62.3185 43.6031 61.915 43.5971 61.4931C43.5819 61.0619 43.7396 60.6523 44.0278 60.3381L45.9694 58.25C48.0566 55.9986 49.9557 53.5747 51.6333 50.9968L51.9488 50.5071C52.5465 49.5863 52.4585 48.382 51.7395 47.5628C51.3148 47.0823 50.7263 46.7959 50.0922 46.759C49.446 46.7312 48.8332 46.956 48.366 47.3965L38.0211 57.0303C36.8926 58.0806 36.122 59.5127 35.8641 61.0526L33.4948 78.9406C33.425 79.5042 33.8497 80 34.4019 80H46.7703C47.2284 80 47.6197 79.6489 47.6834 79.187L48.3023 74.3022C48.3873 73.6462 48.7119 73.0457 49.2155 72.6299L57.4884 65.8234C59.078 64.5144 60.1065 62.6449 60.3735 60.5937L63.2282 38.5449C63.3374 37.7564 63.1068 36.9742 62.5971 36.352Z" fill="#3D91FD"/>
<path d="M1.36787 31.619C1.34375 31.619 1.31964 31.619 1.29552 31.616C0.541656 31.5765 -0.0373221 30.927 0.00187877 30.1683C0.876359 13.251 14.7625 7.05719e-05 31.6159 7.05719e-05C48.4813 7.05719e-05 62.3765 13.251 63.2539 30.1683C63.2931 30.927 62.7112 31.5765 61.9573 31.616C61.2155 31.7252 60.5582 31.0697 60.519 30.3139C59.7199 14.8626 47.0248 2.75584 31.6159 2.75584C16.219 2.75584 3.53296 14.8626 2.73386 30.3139C2.69466 31.0484 2.09158 31.619 1.36787 31.619Z" fill="#8977FF"/>
</svg>
